<?xml version="1.0" encoding="utf-8"?><svg xmlns="http://www.w3.org/2000/svg" xmlns:xlink="http://www.w3.org/1999/xlink"><symbol viewBox="-47 1 100 100" id="3dots"><path d="M-19.5 43.5c4.1 0 7.5 3.4 7.5 7.5s-3.4 7.5-7.5 7.5S-27 55.1-27 51s3.4-7.5 7.5-7.5zm22.5 0c4.1 0 7.5 3.4 7.5 7.5S7.1 58.5 3 58.5s-7.5-3.4-7.5-7.5 3.4-7.5 7.5-7.5zm22.5 0c4.1 0 7.5 3.4 7.5 7.5s-3.4 7.5-7.5 7.5S18 55.1 18 51s3.4-7.5 7.5-7.5z"/></symbol><symbol viewBox="14 0.5 100 100" id="alert"><path d="M89.1 59.5H89c-2.7 0-5-2.5-5-5.2V40.5c0-11.3-9.5-20.5-20.9-20-10.7.5-19 9.8-19 20.5v13.2c0 2.7-2.2 5.2-5 5.2H39c-2.1 0-3.4 1.4-3.4 3.5v1.2c0 2 1.3 3.7 3.4 3.7h50.2c2 0 3.3-1.7 3.3-3.7V63c0-2-1.3-3.5-3.4-3.5zM70.1 73H57.9c-.7 0-1.4.7-1.2 1.4.6 3.4 3.7 6 7.3 6s6.7-2.6 7.3-6c.2-.7-.4-1.4-1.2-1.4z"/></symbol><symbol viewBox="0 0 100 100" id="analytics-financial"><path d="M72 70h-1V48c0-1.1-.9-2-2-2h-2c-1.1 0-2 .9-2 2v22h-6V48c0-1.1-.9-2-2-2h-2c-1.1 0-2 .9-2 2v22h-6V48c0-1.1-.9-2-2-2h-2c-1.1 0-2 .9-2 2v22h-6V48c0-1.1-.9-2-2-2h-2c-1.1 0-2 .9-2 2v22h-1c-3.3 0-6 2.7-6 6v2c0 1.1.9 2 2 2h52c1.1 0 2-.9 2-2v-2c0-3.3-2.7-6-6-6zm5-35.6L52.3 20.8c-.7-.5-1.5-.8-2.3-.8-.8 0-1.6.3-2.3.8L23 34.4c-.6.4-1 1-1 1.7V38c0 1.1.9 2 2 2h52c1.1 0 2-.9 2-2v-1.8c0-.7-.4-1.4-1-1.8zM50 36c-2.8 0-5-2.2-5-5s2.2-5 5-5 5 2.2 5 5-2.2 5-5 5z"/></symbol><symbol viewBox="0 0 100 100" id="analytics-healthcare"><path d="M56 38V23c0-1.7-1.3-3-3-3h-4c-1.7 0-3 1.3-3 3s1.3 3 3 3h1v12c0 6.6-5.4 12-12 12s-12-5.4-12-12V26h1c1.7 0 3-1.3 3-3s-1.3-3-3-3h-4c-1.7 0-3 1.3-3 3v15c0 9.9 8.1 18 18 18s18-8.1 18-18zm15 3c-5 0-9 4-9 9 0 3.9 2.5 7.2 6 8.5v2.2C68 68 62 74 54.7 74h-.3c-6.3 0-11.6-4.5-13-10.4-.2-.9-1-1.6-2-1.6h-2c-1.3 0-2.2 1.2-2 2.4C37.1 73.3 45 80 54.3 80h.3C65.3 80 74 71.3 74 60.7v-2.2c3.5-1.2 6-4.6 6-8.5 0-5-4-9-9-9zm0 12c-1.7 0-3-1.3-3-3s1.3-3 3-3 3 1.3 3 3-1.3 3-3 3z"/></symbol><symbol viewBox="0 0 100 100" id="analytics-marketing"><path d="M38 30h4c.6 0 1-.4 1-1v-3h14v3c0 .6.4 1 1 1h4c.6 0 1-.4 1-1v-3c0-3.3-2.7-6-6-6H43c-3.3 0-6 2.7-6 6v3c0 .6.4 1 1 1zm36 6H26c-3.3 0-6 2.7-6 6v32c0 3.3 2.7 6 6 6h48c3.3 0 6-2.7 6-6V42c0-3.3-2.7-6-6-6zM54 69c0 1.7-1.3 3-3 3h-2c-1.7 0-3-1.3-3-3-1.1 0-2-.9-2-2s.9-2 2-2h8c1.1 0 2 .9 2 2s-.9 2-2 2zm3.4-11.1c-.9 1-1.4 1.2-1.4 3v.3c0 1-.4 1.8-1.4 1.8h-9.1c-1 0-1.4-.8-1.4-1.8v-.3c0-1.8-.6-2.1-1.4-3.1-1.5-1.7-2.5-3.9-2.5-6.2 0-5.7 5-10.2 11.1-9.6 4.4.4 8.1 3.8 8.8 8 .3 2.9-.8 5.7-2.7 7.9z"/></symbol><symbol viewBox="0 0 100 100" id="analytics-sales"><path d="M38 30h4c.6 0 1-.4 1-1v-3h14v3c0 .6.4 1 1 1h4c.6 0 1-.4 1-1v-3c0-3.3-2.7-6-6-6H43c-3.3 0-6 2.7-6 6v3c0 .6.4 1 1 1zm36 6H26c-3.3 0-6 2.7-6 6v32c0 3.3 2.7 6 6 6h48c3.3 0 6-2.7 6-6V42c0-3.3-2.7-6-6-6zM42 70c0 .6-.4 1-1 1h-6c-.6 0-1-.4-1-1V52c0-.6.4-1 1-1h6c.6 0 1 .4 1 1v18zm12 0c0 .6-.4 1-1 1h-6c-.6 0-1-.4-1-1V58c0-.6.4-1 1-1h6c.6 0 1 .4 1 1v12zm12 0c0 .6-.4 1-1 1h-6c-.6 0-1-.4-1-1V46c0-.6.4-1 1-1h6c.6 0 1 .4 1 1v24z"/></symbol><symbol viewBox="0 0 100 100" id="analytics-service"><path d="M50.1 52c-3.2 0-5.9 2.6-6 5.9-.1 3.2 2.5 5.9 5.8 5.9 3.2 0 5.9-2.6 6-5.9.1-3.2-2.5-5.9-5.8-5.9zM38 30h4c.6 0 1-.4 1-1v-3h14v3c0 .6.4 1 1 1h4c.6 0 1-.4 1-1v-3c0-3.3-2.7-6-6-6H43c-3.3 0-6 2.7-6 6v3c0 .6.4 1 1 1zM74 36H26c-3.3 0-6 2.7-6 6v32c0 3.3 2.7 6 6 6h48c3.3 0 6-2.7 6-6V42c0-3.3-2.7-6-6-6zM61 57.9c0 .7-.1 1.5-.2 2.1l2.2 2c.8.7 1 1.8.4 2.7l-1 1.6c-.4.6-1.1 1-1.8 1-.3 0-.5 0-.7-.1L57.2 66c-1.1 1-2.5 1.8-3.9 2.3l-.6 3c-.2 1-1.1 1.7-2.1 1.7h-2c-1 0-1.9-.7-2-1.7l-.4-3c-1.3-.5-2.6-1.2-3.7-2.2l-2.9 1.1c-.2.1-.5.1-.7.1-.7 0-1.4-.4-1.8-1l-1-1.7c-.5-.9-.3-2 .5-2.6l2.4-1.9v-2.3c0-.7.1-1.5.2-2.1l-2.3-1.9c-.8-.6-.9-1.7-.4-2.6l1-1.7c.4-.6 1.1-1 1.8-1 .2 0 .5 0 .7.1l2.8 1.1c1.1-1 2.4-1.7 3.8-2.1l.5-2.9c.2-1 1.1-1.6 2.1-1.6h2c1 0 1.9.6 2 1.6l.4 2.9c1.3.5 2.6 1.2 3.7 2.1l2.9-1.1c.2-.1.5-.1.7-.1.7 0 1.4.4 1.8 1l1 1.7c.5.9.3 2-.5 2.6l-2.4 1.9c.2.7.2 1.5.2 2.2z"/></symbol><symbol viewBox="0 0 100 100" id="apps"><path d="M78.6 52.3H47.8c-.8 0-1.5.7-1.5 1.5v18.5c0 .8.7 1.5 1.5 1.5h30.8c.8 0 1.5-.7 1.5-1.5V53.8c0-.8-.8-1.5-1.5-1.5zM67.8 49.2v-7.7c0-.8-.7-1.5-1.5-1.5H35.5c-.8 0-1.5.7-1.5 1.5V60c0 .8.7 1.5 1.5 1.5h7.7v-7.7c0-2.5 2.1-4.6 4.6-4.6h20zM56.9 37v-7.7c0-1.7-1.4-3.1-3.1-3.1H23c-1.7 0-3.1 1.4-3.1 3.1v18.5c0 1.7 1.4 3.1 3.1 3.1h7.7v-9.3c0-2.5 2.1-4.6 4.6-4.6h21.6z"/></symbol><symbol viewBox="21.5 0.5 100 100" id="attachment"><path d="M60.5 63.4c1 .9 2.5.9 3.5 0l12-12c.9-.9 2.4-.9 3.4 0 1.1.9 1 2.7 0 3.7L64.2 70.3c-3.4 3.4-9 3.4-12.4 0l-.2-.2c-3.4-3.4-3.4-8.9 0-12.3l27.1-27.1c3.4-3.4 9-3.4 12.4 0l.2.2c3.4 3.4 3.4 8.9 0 12.3-.6.6-.7 1.5-.3 2.3.8 1.3 1.4 2.9 1.7 4.4.2.9 1.4 1.3 2.1.6l1.9-1.9c6.4-6.3 6.4-16.7 0-23.1l-.2-.2c-6.4-6.3-16.8-6.3-23.2 0l-27.1 27c-6.4 6.4-6.4 16.7 0 23.1l.2.2c6.3 6.3 16.7 6.3 23 0l15.4-15.4c3.9-3.9 3.9-10.4-.2-14.4-4-3.9-10.5-3.5-14.4.3L58.6 58c-1 1-.9 2.6 0 3.6l1.9 1.8z"/></symbol><symbol viewBox="0 0 100 100" id="automotive"><path d="M75.5 43.2l-4.9-15.4C69.7 24.9 67 23 64 23H36c-3 0-5.7 1.9-6.7 4.8l-4.8 15.4c-2.6.7-4.5 3-4.5 5.8v12c0 2.6 2 4.8 4 5.7V75c0 1.1.9 2 2 2h8c1.1 0 2-.9 2-2v-8h28v8c0 1.1.9 2 2 2h8c1.1 0 2-.9 2-2v-8.3c2-.8 4-3 4-5.7V49c0-2.8-1.9-5.1-4.5-5.8zM30 60c-2.8 0-5-2.2-5-5s2.2-5 5-5 5 2.2 5 5-2.2 5-5 5zm22-17H32.2c-.7 0-1.2-.7-1-1.3l3.8-12c.1-.4.5-.7.9-.7h28c.4 0 .8.3.9.6l3.8 12.1c.2.6-.3 1.3-1 1.3H52zm17 17c-2.8 0-5-2.2-5-5s2.2-5 5-5 5 2.2 5 5-2.2 5-5 5z"/></symbol><symbol viewBox="21.5 1 100 100" id="back-arrow"><path d="M99.6 47.3H58.1c-1.1 0-1.7-1.3-.9-2.1l12-12c.7-.7.7-1.9 0-2.6L66.6 28c-.7-.7-1.9-.7-2.6 0L42.1 49.7c-.7.7-.7 1.9 0 2.6L64 74.2c.7.7 1.9.7 2.6 0l2.6-2.6c.7-.7.7-1.9 0-2.6l-12-12c-.8-.8-.2-2.1.9-2.1h41.5c1 0 1.9-.8 1.9-1.9v-3.7c0-1.2-.9-2-1.9-2z"/></symbol><symbol viewBox="0 0 100 100" id="beaker"><path d="M70.5 72.1L58 52.9V42.5c2 0 3-1.2 3-2.8S60 37 58.4 37H41.5C40 37 39 38.2 39 39.8s1 2.8 3 2.8V53L29.5 72.1c-1 1.6-1.2 3.6-.3 5.3.9 1.7 2.5 2.7 4.4 2.7h32.7c1.9 0 3.5-1 4.4-2.7 1-1.7.8-3.7-.2-5.3zM47 54.6V43h6v11.6l5.9 9.4H41.1l5.9-9.4z"/><circle cx="46.2" cy="29.4" r="3.8"/><circle cx="53.7" cy="22.8" r="2.8"/></symbol><symbol viewBox="0 0 100 100" id="chart-types"><path d="M78 70H22c-1.1 0-2 .9-2 2v4c0 1.1.9 2 2 2h56c1.1 0 2-.9 2-2v-4c0-1.1-.9-2-2-2zm-50-6h8c1.1 0 2-.9 2-2V36c0-1.1-.9-2-2-2h-8c-1.1 0-2 .9-2 2v26c0 1.1.9 2 2 2zm36 0h8c1.1 0 2-.9 2-2V24c0-1.1-.9-2-2-2h-8c-1.1 0-2 .9-2 2v38c0 1.1.9 2 2 2zm-18 0h8c1.1 0 2-.9 2-2V44c0-1.1-.9-2-2-2h-8c-1.1 0-2 .9-2 2v18c0 1.1.9 2 2 2z"/></symbol><symbol viewBox="0 0 100 100" id="chat"><path d="M50 22c-16.6 0-30 12.5-30 28 0 5 1.4 9.6 3.8 13.7.3.5.4 1.1.2 1.6l-2.8 8.9c-.5 1.6 1 3 2.6 2.5l8.8-3.1c.6-.2 1.2-.1 1.7.2 4.6 2.7 10 4.2 15.8 4.2 16.6 0 30-12.5 30-28C80 34.5 66.6 22 50 22zM36 55c-2.8 0-5-2.2-5-5s2.2-5 5-5 5 2.2 5 5-2.2 5-5 5zm14 0c-2.8 0-5-2.2-5-5s2.2-5 5-5 5 2.2 5 5-2.2 5-5 5zm14 0c-2.8 0-5-2.2-5-5s2.2-5 5-5 5 2.2 5 5-2.2 5-5 5z"/></symbol><symbol viewBox="-47 1 100 100" id="chevrondown"><path d="M32.5 39.9L4.6 68.1c-.8.8-2.2.8-3 0l-27.9-28.2c-.8-.8-.8-2.2 0-3l3-3c.8-.8 2.2-.8 3 0L1.6 56.1c.8.8 2.2.8 3 0L26.5 34c.8-.8 2.2-.8 3 0l3 3c.7.8.7 2.1 0 2.9z"/></symbol><symbol viewBox="-47 1 100 100" id="chevronleft"><path d="M14.2 80.5l-28.3-27.9c-.8-.8-.8-2.2 0-3l28.3-27.9c.8-.8 2.2-.8 3 0l3 3c.8.8.8 2.2 0 3L-2.3 49.6c-.8.8-.8 2.2 0 3l22.2 21.9c.8.8.8 2.2 0 3l-3 3c-.7.7-1.9.7-2.7 0z"/></symbol><symbol viewBox="-47 1 100 100" id="chevronright"><path d="M-8.1 21.5l28.2 27.9c.8.8.8 2.2 0 3l-28.2 28c-.8.8-2.2.8-3 0l-3-3c-.8-.8-.8-2.2 0-3l22.2-22c.8-.8.8-2.2 0-3L-14 27.5c-.8-.8-.8-2.2 0-3l3-3c.8-.7 2.1-.7 2.9 0z"/></symbol><symbol viewBox="-47 1 100 100" id="chevronup"><path d="M-26.5 62.1L1.4 33.9c.8-.8 2.2-.8 3 0l27.9 28.2c.8.8.8 2.2 0 3l-3 3c-.8.8-2.2.8-3 0L4.4 45.8c-.8-.8-2.2-.8-3 0L-20.5 68c-.8.8-2.2.8-3 0l-3-3c-.7-.8-.7-2.1 0-2.9z"/></symbol><symbol viewBox="-3 1 100 100" id="clone"><path d="M72 21H37c-2.8 0-5 2.2-5 5v3.1c0 1 .9 1.9 1.9 1.9H57c5.5 0 10 4.5 10 10v23.1c0 1 .9 1.9 1.9 1.9H72c2.8 0 5-2.2 5-5V26c0-2.8-2.2-5-5-5zM57 36H22c-2.8 0-5 2.2-5 5v35c0 2.8 2.2 5 5 5h35c2.8 0 5-2.2 5-5V41c0-2.8-2.2-5-5-5zm-5 33.8c0 .8-.5 1.2-1.2 1.2H28.2c-.7 0-1.2-.5-1.2-1.2v-2.5c0-.8.5-1.2 1.2-1.2h22.5c.8 0 1.2.5 1.2 1.2v2.5zm0-10c0 .8-.5 1.2-1.2 1.2H28.2c-.7 0-1.2-.5-1.2-1.2v-2.5c0-.8.5-1.2 1.2-1.2h22.5c.8 0 1.2.5 1.2 1.2v2.5zm0-10c0 .8-.5 1.2-1.2 1.2H28.2c-.7 0-1.2-.5-1.2-1.2v-2.5c0-.8.5-1.2 1.2-1.2h22.5c.8 0 1.2.5 1.2 1.2v2.5z"/></symbol><symbol viewBox="20 0 100 100" id="close"><path d="M78 48.9l21.2-21.2c.9-.9.9-2.5 0-3.4l-3.4-3.4c-.9-.9-2.5-.9-3.4 0L71.1 42c-.6.6-1.6.6-2.3 0L47.6 20.7c-.9-.9-2.5-.9-3.4 0l-3.4 3.4c-.9.9-.9 2.5 0 3.4L62 48.9c.6.6.6 1.6 0 2.3L40.7 72.4c-.9.9-.9 2.5 0 3.4l3.4 3.4c.9.9 2.5.9 3.4 0L68.9 58c.6-.6 1.6-.6 2.3 0l21.2 21.2c.9.9 2.5.9 3.4 0l3.4-3.4c.9-.9.9-2.5 0-3.4L78 51.1c-.6-.6-.6-1.6 0-2.2z"/></symbol><symbol viewBox="0 0 100 100" id="collapse"><path d="M42 22h-3c-.8 0-2 .2-2 1v10.3L24.5 20.4c-.6-.6-1.4-.6-2 0l-2.1 2.2c-.6.6-.5 1.7.1 2.3L33.3 38H23c-.8 0-2 .2-2 1v3c0 .8 1.2 2 2 2h17.5c1.7 0 2.5-1.9 2.5-3.5V23c0-.8-.2-1-1-1zm17.5 22H77c.8 0 1-1.2 1-2v-3c0-.8-.2-1-1-1H66.7l12.8-13.1c.6-.6.6-1.7 0-2.2l-2.2-2.2c-.6-.6-1.7-.6-2.3-.1L62 33.3V23c0-.8-.2-1-1-1h-3c-.8 0-2 .2-2 1v17.5c0 1.6 1.9 3.5 3.5 3.5zm7.2 19H77c.8 0 1-1.2 1-2v-3c0-.8-.2-1-1-1H59.5c-1.7 0-3.5.8-3.5 2.5V77c0 .8 1.2 2 2 2h3c.8 0 1-1.2 1-2V66.7l13.1 12.8c.6.6 1.7.6 2.2 0l2.2-2c.6-.6.6-1.4.1-2L66.7 63zm-26.2-6H23c-.8 0-2 .2-2 1v3c0 .8 1.2 2 2 2h10.3L20.5 75.5c-.6.6-.6 1.4 0 2l2 2.1c.6.6 1.4.5 2-.1L37 66.7V77c0 .8 1.2 2 2 2h3c.8 0 1-1.2 1-2V59.5c0-1.7-.8-2.5-2.5-2.5z"/></symbol><symbol viewBox="0 0 100 100" id="customer-overview"><path d="M53 20c-14.9 0-27 12.1-27 27 0 6.4 2.2 12.2 5.9 16.8l-11 11c-1.2 1.2-1.2 3.1 0 4.2.6.6 1.4.9 2.1.9s1.5-.3 2.1-.9l11-11c4.7 3.8 10.5 6 16.9 6 14.9 0 27-12.1 27-27S67.9 20 53 20zm0 48c-11.6 0-21-9.4-21-21s9.4-21 21-21 21 9.4 21 21-9.4 21-21 21zM59.6 51.3c-2.7-1.2-3.2-2.3-3.2-3.4 0-1.2.8-2.3 1.7-3.1 1.6-1.5 2.5-3.6 2.5-6 0-4.5-2.8-8.4-7.7-8.4s-7.7 3.9-7.7 8.4c0 2.4.9 4.5 2.5 6 .9.9 1.7 2 1.7 3.1s-.4 2.2-3.2 3.4c-3.2 1.4-6.3 2.8-7.4 5.2 2 2.9 4.9 5.2 8.3 6.5 1.8.6 3.7 1 5.8 1s4-.4 5.8-1c3.4-1.2 6.3-3.5 8.3-6.5-1.1-2.3-4.2-3.8-7.4-5.2z"/></symbol><symbol viewBox="-47 1 100 100" id="cut"><path d="M21.6 58.5c-2.2-.5-4.2-.3-6 .4l-28.2-37.4c-.4-.5-1.3-.6-1.8-.3l-1 .8c-2.2 1.7-2.6 4.9-.9 7.1L-2.7 47c.5.6.5 1.7 0 2.3l-7.3 9.6c-1.8-.6-4-.8-6-.4-4.7 1-8.4 4.9-9.1 9.6-1 7.5 5.6 14 13.4 12.8 4.6-.8 8.3-4.3 9.3-8.8.6-3.2 0-6.1-1.5-8.3l5.4-7.1c.8-1 2.3-1 3.1 0l5.4 7.1c-1.5 2.4-2.2 5.4-1.5 8.3.9 4.6 4.7 8 9.3 8.8 7.8 1.3 14.4-5.2 13.4-12.8-1.3-4.9-5-8.7-9.6-9.6zm-35.5 14.9c-2.2 0-3.8-1.7-3.8-3.8 0-2.2 1.7-3.8 3.8-3.8s3.8 1.7 3.8 3.8c.1 2.2-1.6 3.8-3.8 3.8zm33.2 0c-2.2 0-3.8-1.7-3.8-3.8 0-2.2 1.7-3.8 3.8-3.8s3.8 1.7 3.8 3.8c-.1 2.2-1.7 3.8-3.8 3.8zM9.6 42.5c.5.6 1.5.6 2 0l10.2-13.4c1.4-1.9 1.3-4.5-.1-6.3l.1-.1-.1.1c-.3-.4-1.9-1.7-1.9-1.7-.5-.4-1.4-.3-1.8.3l-11.2 15c-.5.6-.5 1.7 0 2.3l2.8 3.8z"/></symbol><symbol viewBox="0 0 100 100" id="dashboards"><path d="M20.5 39.9c-.2 0-.4.2-.4.4V44c0 .2.2.4.4.4h9.4c.2 0 .4-.2.4-.4v-3.6c0-.2-.2-.4-.4-.4l-9.4-.1zm59.4 40.9c0 .2-.2.4-.4.4h-3.6c-.2 0-.4-.2-.4-.4V52.7c0-.2.2-.4.4-.4h3.6c.2 0 .4.2.4.4v28.1zM50.1 48.3c-.4 0-.8-.1-1.1-.4-.6-.6-.6-1.5 0-2.1l12.3-12.3-2.8-3-8.1 7.7c-.6.6-1.5.5-2.1-.1s-.5-1.5.1-2.1l9.1-8.7c.3-.3.7-.4 1.1-.4.4 0 .8.2 1 .5l3.8 4 4.1-4.1c.3-.3.7-.4 1.1-.4s.8.2 1.1.5l3.7 4.2 3.9-3.7c.6-.6 1.5-.5 2.1.1s.5 1.5-.1 2.1l-4 3.7 4.1 4.6c.5.6.5 1.6-.1 2.1s-1.6.5-2.1-.1l-4-4.6-4.1 3.8c-.3.3-.7.4-1.1.4s-.8-.2-1-.5l-3.7-3.9-12.1 12.3c-.3.3-.7.4-1.1.4zm15.4-14.8l2.7 2.9 3-2.8-2.7-3.1-3 3zm8.4 47.3c0 .2-.2.4-.4.4h-3.6c-.2 0-.4-.2-.4-.4V58.5c0-.2.2-.4.4-.4h3.6c.2 0 .4.2.4.4v22.3zm-6.1 0c0 .2-.2.4-.4.4h-3.6c-.2 0-.4-.2-.4-.4V62.9c0-.2.2-.4.4-.4h3.6c.2 0 .4.2.4.4v17.9zm-6 0c0 .2-.2.4-.4.4h-3.6c-.2 0-.4-.2-.4-.4v-9.4c0-.2.2-.4.4-.4h3.6c.2 0 .4.2.4.4v9.4zM20.5 34c-.2 0-.4.2-.4.4V38c0 .2.2.4.4.4h17.9c.2 0 .4-.2.4-.4v-3.6c0-.2-.2-.4-.4-.4H20.5zm0-6.2c-.2 0-.4.2-.4.4v3.6c0 .2.2.4.4.4h22.1c.2 0 .4-.2.4-.4v-3.6c0-.2-.2-.4-.4-.4H20.5zm-.2-5.9c-.2 0-.4.2-.4.4v3.6c0 .2.2.4.4.4h28.1c.2 0 .4-.2.4-.4v-3.6c0-.2-.2-.4-.4-.4H20.3zm26.8 46.8c-.4 6.8-5.7 12.1-12.6 12.6v-5.7c3.4-.4 6.2-3.2 6.8-6.8l5.8-.1zm0-1.9c-.4-6.8-5.7-12.1-12.6-12.6V60c3.4.4 6.2 3.2 6.8 6.8h5.8zm-27 0c.4-6.8 5.7-12.1 12.6-12.6V60c-3.4.4-6.2 3.2-6.8 6.8h-5.8zm0 1.9c.4 6.8 5.7 12.1 12.6 12.6v-5.7c-3.4-.4-6.2-3.2-6.8-6.8l-5.8-.1z"/></symbol><symbol viewBox="0 0 100 100" id="data-play"><path d="M31.7 63.4c-3.7-3.7-2-9.9 3-11.1l3.1-.7V26.1c0-1.1-.9-2-2-2h-8.1c-1.1 0-2 .9-2 2v36.5c0 1.1.9 2 2 2h2.9l1.1-1.2zm22.4-33.3H46c-1.1 0-2 .9-2 2V50l9.1-2.2c1-.3 2.1-.3 3-.1V32.2c0-1.2-.9-2.1-2-2.1zM72.3 20h-8.1c-1.1 0-2 .9-2 2v40.5c0 1.1.9 2 2 2h8.1c1.1 0 2-.9 2-2V22c0-1.1-.9-2-2-2zM53.7 54L38 57.8c-1.2.3-1.6 1.7-.7 2.6l3.1 3.1L30 73.8c-.6.6-.6 1.6 0 2.1l1.8 1.8 1.8 1.8c.6.6 1.6.6 2.1 0l10.4-10.4 3.1 3.1c.8.8 2.3.4 2.6-.7l3.8-15.7c.2-1.1-.8-2.1-1.9-1.8z"/></symbol><symbol viewBox="0 0 100 100" id="data-view"><path d="M31 60c0-5.9 2.7-11.2 7-14.7V26c0-1.1-.9-2-2-2h-8c-1.1 0-2 .9-2 2v36c0 1.1.9 2 2 2h3.4c-.2-1.3-.4-2.6-.4-4zm25-18V32c0-1.1-.9-2-2-2h-8c-1.1 0-2 .9-2 2v10c1.9-.6 3.9-1 6-1s4.1.3 6 1zm16-22h-8c-1.1 0-2 .9-2 2v23.3c4.3 3.5 7 8.8 7 14.7 0 1.4-.2 2.7-.4 4H72c1.1 0 2-.9 2-2V22c0-1.1-.9-2-2-2zM50 47c-7.2 0-13 5.8-13 13 0 2.8.9 5.3 2.3 7.4l-7.5 7.5c-1.2 1.2-1.2 3.1 0 4.2.6.6 1.4.9 2.1.9s1.5-.3 2.1-.9l7.7-7.7c1.8 1 3.9 1.6 6.2 1.6 7.2 0 13-5.8 13-13S57.2 47 50 47zm0 20c-3.9 0-7-3.1-7-7s3.1-7 7-7 7 3.1 7 7-3.1 7-7 7z"/></symbol><symbol viewBox="0 0 100 100" id="datasets"><path d="M50 21l26 15v30L50 81 24 66V36"/></symbol><symbol viewBox="0 0 100 100" id="date"><path d="M76 42H24c-1.1 0-2 .9-2 2v30c0 3.3 2.7 6 6 6h44c3.3 0 6-2.7 6-6V44c0-1.1-.9-2-2-2zM44 71h-6V56.8l-2.8 2.4-3-3.6 7.2-5.5H44V71zm21 0H50v-4l4.9-5.3c.6-.6 1.1-1.2 1.6-1.8.5-.5.9-1 1.2-1.5.3-.5.6-.9.7-1.4.2-.4.2-.9.2-1.5 0-.5-.1-.8-.4-1-.3-.2-.6-.4-1.1-.4-.6 0-1.2.1-1.7.4-.6.3-1.3.8-1.9 1.4l-.5.8-3.3-3.9.5-.5c.4-.4.9-.8 1.3-1.1.5-.4 1-.7 1.6-1 .6-.3 1.2-.5 1.9-.7.7-.2 1.5-.3 2.4-.3 1 0 2 .1 2.8.4.9.3 1.6.7 2.2 1.3.6.6 1.1 1.2 1.4 2 .3.8.5 1.7.5 2.6 0 .9-.2 1.7-.5 2.5s-.7 1.5-1.2 2.3c-.5.7-1.1 1.4-1.7 2.1-.6.7-1.3 1.4-2 2.1L57.7 66H65v5zm7-45h-5v-2c0-2.2-1.8-4-4-4s-4 1.8-4 4v2H41v-2c0-2.2-1.8-4-4-4s-4 1.8-4 4v2h-5c-3.3 0-6 2.7-6 6v2c0 1.1.9 2 2 2h52c1.1 0 2-.9 2-2v-2c0-3.3-2.7-6-6-6z"/></symbol><symbol viewBox="0 0 100 100" id="dimension"><path d="M56.2 68H53v-4h-6v4h-3.2c-1.1 0-1.6 1.2-1 2l6.2 7.6c.5.6 1.4.6 1.9 0l6.2-7.6c.8-.8.2-2-.9-2zM43.8 28H47v4h6v-4h3.2c1.1 0 1.6-1.1 1-1.9L51 18.5c-.5-.6-1.4-.6-1.9 0L42.8 26c-.6.9-.1 2 1 2zM30 41.8c0-1.1-1.2-1.6-2-1L20.4 47c-.6.5-.6 1.4 0 1.9l7.5 6.2c.8.7 2 .1 2-1V51h4v-6h-4v-3.2zm49.5 5.3L72 40.9c-.8-.7-2-.1-2 1V45h-4v6h4v3.3c0 1.1 1.2 1.6 2 1l7.6-6.2c.6-.6.5-1.5-.1-2zM60 44c0-3.3-2.7-6-6-6h-8c-3.3 0-6 2.7-6 6v8c0 3.3 2.7 6 6 6h8c3.3 0 6-2.7 6-6v-8z"/></symbol><symbol viewBox="20 0 100 100" id="download"><path d="M97.5 56.5H95c-1.4 0-2.5.8-2.5 2.2v12.5c0 .7-.6 1.2-1.2 1.2H48.8c-.7 0-1.2-.6-1.2-1.2V58.8c0-1.4-1.1-2.2-2.5-2.2h-2.5c-1.4 0-2.5.8-2.5 2.2V75c0 2.8 2.2 5 5 5h50c2.8 0 5-2.2 5-5V58.8c-.1-1.5-1.2-2.3-2.6-2.3zM68.7 66.9c.8.8 1.9.8 2.7 0l16.8-16.8c.8-.8.8-1.9 0-2.6l-2.6-2.7c-.8-.8-2.1-.8-2.8 0L73.5 54V22.1c0-1.1-.6-2.1-1.6-2.1h-3.8c-1 0-2.2 1-2.2 2v32l-9-9.2c-.8-.8-1.8-.8-2.6 0l-2.6 2.7c-.8.8-.7 1.9 0 2.6l17 16.8z"/></symbol><symbol viewBox="0 0 100 100" id="edit"><path d="M30.9 58.8L41.1 69c.4.4 1.1.4 1.5 0l27-27.1c.4-.4.4-1.1 0-1.5L59.4 30.3c-.4-.4-1.1-.4-1.5 0l-27.1 27c-.4.4-.4 1.1.1 1.5zm32.5-33.9c-.5.5-.5 1.4 0 1.9l9.7 9.7c.5.5 1.4.5 1.9 0l3.4-3.3c2.1-2.1 2.1-5.3 0-7.4l-4.2-4.2c-2.1-2.1-5.5-2.1-7.6 0l-3.2 3.3zM20.1 77.8c-.3 1.3.9 2.5 2.2 2.2l13.6-4.6c.5-.2.9-.4 1.2-.7l.3-.3c.3-.3.3-1.2-.2-1.7l-9.9-9.9c-.6-.5-1.5-.4-1.8-.1l-.2.2c-.4.4-.6.8-.7 1.2l-4.5 13.7z"/></symbol><symbol viewBox="-47 1 100 100" id="error"><path d="M3 21c-16.5 0-30 13.5-30 30s13.5 30 30 30 30-13.5 30-30S19.5 21 3 21zm0 52.5c-12.4 0-22.5-10.1-22.5-22.5S-9.4 28.5 3 28.5 25.5 38.6 25.5 51 15.4 73.5 3 73.5zm13-26.3h-26c-1 0-1.7.8-1.9 1.6-.1 1.4-.1 2.8 0 4.2.1 1 .9 1.6 1.9 1.6h26c1 0 1.8-.8 1.9-1.6.1-1.4.1-2.8 0-4.2-.1-.8-.9-1.6-1.9-1.6z"/></symbol><symbol viewBox="0 0 100 100" id="expand"><path d="M30.2 26h10.3c.8 0 1.5-.7 1.5-1.5v-3c0-.8-.7-1.5-1.5-1.5H23c-1.7 0-3 1.3-3 3v17.5c0 .8.7 1.5 1.5 1.5h3c.8 0 1.5-.7 1.5-1.5V30.2L38.8 43c.6.6 1.5.6 2.1 0l2.1-2.1c.6-.6.6-1.5 0-2.1L30.2 26zM77 20H59.5c-.8 0-1.5.7-1.5 1.5v3c0 .8.7 1.5 1.5 1.5h10.3L56.9 38.8c-.6.6-.6 1.5 0 2.1L59 43c.6.6 1.5.6 2.1 0L74 30.2v10.3c0 .8.7 1.5 1.5 1.5h3c.8 0 1.5-.7 1.5-1.5V23c0-1.7-1.3-3-3-3zm1.5 38h-3c-.8 0-1.5.7-1.5 1.5v10.3L61.2 56.9c-.6-.6-1.5-.6-2.1 0L57 59c-.6.6-.6 1.5 0 2.1L69.8 74H59.5c-.8 0-1.5.7-1.5 1.5v3c0 .8.7 1.5 1.5 1.5H77c1.7 0 3-1.3 3-3V59.5c0-.8-.7-1.5-1.5-1.5zm-37.6-1.1c-.6-.6-1.5-.6-2.1 0L26 69.8V59.5c0-.8-.7-1.5-1.5-1.5h-3c-.8 0-1.5.7-1.5 1.5V77c0 1.7 1.3 3 3 3h17.5c.8 0 1.5-.7 1.5-1.5v-3c0-.8-.7-1.5-1.5-1.5H30.2L43 61.2c.6-.6.6-1.5 0-2.1l-2.1-2.2z"/></symbol><symbol viewBox="0 0 100 100" id="explore"><path d="M78 48.1s.1 0 0 0l-9.6-12.9c-1.2-1.6-2.9-2.7-4.8-3l-1-1.9c-.9-1.7-2.8-2.5-4.7-2.1l-.7.2c-2.3.6-3.7 2.9-2.9 5.1l.5 1.5c-.6.8-1.1 1.7-1.4 2.6-1-.5-2.2-.7-3.4-.7s-2.3.3-3.4.7c-.3-1-.8-1.8-1.4-2.6l.5-1.5c.8-2.2-.6-4.6-2.9-5.1l-.7-.2c-1.9-.5-3.8.4-4.7 2.1l-1 1.9c-1.9.4-3.7 1.4-4.9 3l-8.3 11.1c-.5.5-.9 1.1-1.3 1.7l-.1.1c-1.3 2-1.9 4.4-1.9 6.8 0 3.5 1.4 6.8 3.8 9.2 2.5 2.5 5.7 3.8 9.2 3.8s6.8-1.4 9.2-3.8c1.4-1.4 2.4-3 3-4.7 1.3 1 2.9 1.5 4.7 1.5 1.8 0 3.4-.6 4.8-1.6.6 1.8 1.7 3.4 3 4.8 2.5 2.5 5.7 3.8 9.2 3.8s6.7-1.4 9.2-3.8c2.5-2.5 3.8-5.7 3.8-9.2.2-2.4-.5-4.7-1.8-6.8zM38.1 59.9c-1.3 1.3-3.1 2.1-5 2.1s-3.7-.7-5-2.1c-1.3-1.3-2.1-3.1-2.1-5s.7-3.7 2.1-5c1.3-1.3 3.1-2.1 5-2.1s3.7.7 5 2.1c1.3 1.3 2.1 3.1 2.1 5s-.8 3.7-2.1 5zM72 60c-1.3 1.3-3.1 2.1-5 2.1s-3.6-.7-5-2.1c-1.3-1.3-2.1-3.1-2.1-5s.7-3.6 2.1-5c1.3-1.3 3.1-2.1 5-2.1s3.6.7 5 2.1c1.3 1.3 2.1 3.1 2.1 5s-.8 3.6-2.1 5z"/></symbol><symbol viewBox="-47 1 100 100" id="favorite"><path d="M4.8 23.6l5.8 17.5c.3.8 1 1.1 1.8 1.1h18.8c1.9 0 2.6 2.5 1.1 3.6L16.9 57.1c-.6.5-.9 1.4-.6 2.1l6 18c.5 1.8-1.4 3.3-2.9 2.1l-15.1-11c-.6-.5-1.5-.5-2.3 0l-15.3 11c-1.5 1.1-3.5-.4-2.9-2.1l5.8-18c.3-.8 0-1.6-.6-2.1l-15.3-11.3c-1.5-1.1-.6-3.6 1.1-3.6h18.8c.9 0 1.5-.3 1.8-1.1l5.9-17.6c.5-1.8 3-1.7 3.5.1z"/></symbol><symbol viewBox="0 0 100 100" id="file"><path d="M63 33h9.3c.6 0 .9-.8.5-1.2L62.2 21.2c-.4-.4-1.2-.1-1.2.5V31c0 1.1.9 2 2 2zM73 39H58c-1.7 0-3-1.3-3-3V21c0-.6-.4-1-1-1H28c-1.1 0-2 .9-2 2v56c0 1.1.9 2 2 2h44c1.1 0 2-.9 2-2V40c0-.6-.4-1-1-1zm-39-5c0-.6.4-1 1-1h12c.6 0 1 .4 1 1v4c0 .6-.4 1-1 1H35c-.6 0-1-.4-1-1v-4zm28 28c0 .6-.4 1-1 1H35c-.6 0-1-.4-1-1v-4c0-.6.4-1 1-1h26c.6 0 1 .4 1 1v4zm4-12c0 .6-.4 1-1 1H35c-.6 0-1-.4-1-1v-4c0-.6.4-1 1-1h30c.6 0 1 .4 1 1v4z"/></symbol><symbol viewBox="15.5 0 100 100" id="flag"><path d="M37 22.5v55c0 1.4 1.1 2.5 2.5 2.5H42c1.4 0 2.5-1.1 2.5-2.5v-55c0-1.4-1.1-2.5-2.5-2.5h-2.5C38 20 37 21.1 37 22.5zM90.7 28C72.6 36.3 74 16.6 51.1 24.4c-1 .4-1.5 1.3-1.5 2.4v27c0 1.7 1.5 2.9 3.1 2.4 21.9-6.5 20.3 13.5 39.6 3.3 1.2-.7 1.8-2 1.8-3.3v-26c0-1.8-1.8-3-3.4-2.2z"/></symbol><symbol viewBox="-47 1 100 100" id="groups"><path d="M-8.6 53.4c-1.6-2.4-2.4-5.2-2.4-8.3 0-5.3 2.2-9.7 5.7-12.4-1.2-2.1-3.5-3.6-6.5-3.6-5.1 0-8 4.2-8 8.9 0 2.5.8 4.7 2.5 6.2.9.9 1.7 2.1 1.7 3.2 0 1.2-.5 2.3-3.4 3.6-4.2 1.8-8 4.4-8.1 8.2.1 2.5 1.7 4.5 4.2 4.5h3.8c.6 0 1.2-.3 1.5-.9 1.8-3.4 5.3-5.4 8.2-6.9 1.1-.4 1.4-1.7.8-2.5zm33.7-2.3c-2.9-1.3-3.4-2.3-3.4-3.6 0-1.3.8-2.4 1.7-3.2 1.7-1.6 2.5-3.7 2.5-6.2 0-4.7-2.8-8.9-8-8.9-3 0-5.3 1.5-6.6 3.6 3.5 2.7 5.7 7.1 5.7 12.4 0 3.1-.8 5.9-2.4 8.3-.6.9-.2 2.1.7 2.5 2.9 1.4 6.4 3.6 8.2 6.9.3.6.9.9 1.5.9h4c2.4 0 4-2 4-4.5.1-3.8-3.7-6.4-7.9-8.2zm-14.3 8.4c-3.1-1.4-3.7-2.7-3.7-3.9 0-1.4.9-2.7 2-3.6 1.8-1.7 2.9-4.2 2.9-6.9 0-5.2-3.1-9.7-8.8-9.7s-8.8 4.5-8.8 9.7c0 2.8 1 5.2 2.9 6.9 1 1 2 2.3 2 3.6 0 1.4-.5 2.5-3.7 3.9-4.6 2-9 4.2-9.1 8.3 0 2.8 2.1 5.1 4.7 5.1h24c2.7 0 4.7-2.3 4.7-5.1-.1-4-4.5-6.2-9.1-8.3z"/></symbol><symbol viewBox="0 0 100 100" id="help"><path d="M53.8 62.5c0 1.4-1.1 2.5-2.5 2.5h-2.6c-1.4 0-2.4-1.1-2.4-2.5 0 0-.6-6.4 2.5-11.1 2.3-3.6 8.1-5.6 9.4-6.8 1.9-2 3.1-4.2 3.1-7.3 0-6.2-5.1-9.7-11.2-9.7s-11.2 5.1-11.2 11.2c0 1.6-1.1 2.8-2.5 2.8h-2.6c-1.4 0-2.5-1.4-2.5-2.8C31.2 28.4 39.6 20 50 20s18.4 6.9 18.7 17.2c.1 18.1-14.9 10.2-14.9 25.3zm-5 10h2.6c1.4 0 2.4 1.1 2.4 2.6v2.4c0 1.4-1.1 2.5-2.5 2.5h-2.6c-1.4 0-2.4-1.1-2.4-2.6V75c0-1.4 1.1-2.5 2.5-2.5z"/></symbol><symbol viewBox="0 0 100 100" id="home"><path d="M50.6 36.6c-.4-.3-.9-.3-1.3 0L29.9 53.2c-.4.4-.9.9-.9 1.5v18.8c0 3.2 3 5.5 6.3 5.5h7.4c.8 0 1.4-.3 1.4-1.1V67.5c0-3.2 2.7-5.5 5.9-5.5h.1c3.2 0 5.9 2.3 5.9 5.5v10.4c0 .8.6 1.1 1.4 1.1h7.4c3.2 0 6.3-2.3 6.3-5.5V54.7c0-.6-.4-1.1-.9-1.5L50.6 36.6zM79.7 46L51.3 21.6c-.7-.6-1.8-.6-2.6 0L20.3 46c-.4.4-.5 1-.1 1.4l2.6 3c.4.4 1 .5 1.4.1l24.5-21.1c.7-.6 1.8-.6 2.6 0l24.5 21.1c.4.4 1 .3 1.4-.1l2.6-3c.3-.4.3-1-.1-1.4z"/></symbol><symbol viewBox="-47 1 100 100" id="info"><path d="M3 21c-16.6 0-30 13.4-30 30s13.4 30 30 30 30-13.4 30-30S19.6 21 3 21zm0 15.1c2.1 0 3.8 1.6 3.8 3.8S5.1 43.6 3 43.6-.8 42-.8 39.8.9 36.1 3 36.1zm6.2 26.3c0 .6-.5 1.1-1.2 1.1H-2c-.6 0-1.2-.4-1.2-1.1v-2.5c0-.6.5-1.4 1.2-1.4.6 0 1.2-.4 1.2-1.1v-5c0-.6-.5-1.4-1.2-1.4-.6 0-1.2-.4-1.2-1.1v-2.5c0-.6.5-1.4 1.2-1.4h7.5c.6 0 1.2.6 1.2 1.4v10c0 .6.5 1.1 1.2 1.1.6 0 1.2.6 1.2 1.4v2.5z"/></symbol><symbol viewBox="0 0 100 100" id="json-preview"><path d="M72 20H28c-3.3 0-6 2.7-6 6v48c0 3.3 2.7 6 6 6h44c3.3 0 6-2.7 6-6V26c0-3.3-2.7-6-6-6zm0 54H28V32h44v42zM35.5 44h24c.8 0 1.5-.7 1.5-1.5v-3c0-.8-.7-1.5-1.5-1.5h-24c-.8 0-1.5.7-1.5 1.5v3c0 .8.7 1.5 1.5 1.5zm0 12h29c.8 0 1.5-.7 1.5-1.5v-3c0-.8-.7-1.5-1.5-1.5h-29c-.8 0-1.5.7-1.5 1.5v3c0 .8.7 1.5 1.5 1.5zm0 12h21c.8 0 1.5-.7 1.5-1.5v-3c0-.8-.7-1.5-1.5-1.5h-21c-.8 0-1.5.7-1.5 1.5v3c0 .8.7 1.5 1.5 1.5z"/></symbol><symbol viewBox="0 0 100 100" id="lenses"><path d="M20.8 64c-.4 0-.8.4-.8.8v7.7c0 .4.4.8.8.8h19.5c.4 0 .8-.4.8-.8V65c0-.4-.4-.8-.8-.8L20.8 64zm0-12.4c-.4 0-.8.4-.8.8v7.5c0 .4.4.8.8.8H58c.4 0 .8-.4.8-.8v-7.5c0-.4-.4-.8-.8-.8H20.8zm0-12.5c-.4 0-.8.4-.8.8v7.5c0 .4.4.8.8.8h45.9c.4 0 .8-.4.8-.8V40c0-.4-.4-.8-.8-.8l-45.9-.1zm0-12.5c-.4 0-.8.4-.8.8v7.5c0 .4.4.8.8.8h58.3c.4 0 .8-.4.8-.8v-7.5c0-.4-.4-.8-.8-.8H20.8z"/></symbol><symbol viewBox="0 0 100 100" id="lock"><path d="M31.2 41.5h5c.7 0 1.3-.7 1.3-1.4V40c0-7.2 6.1-13 13.4-12.5 6.7.4 11.7 6.3 11.7 12.9v-.3c0 .7.6 1.4 1.3 1.4h5c.7 0 1.3-.7 1.3-1.4V40c0-11.4-9.5-20.6-21-20-10.7.5-18.8 9.7-19 20.2-.2.7.4 1.3 1 1.3zM30 40.1v.5-.5zm45 11.4c0-2.8-2.3-5-5-5H30c-2.8 0-5 2.3-5 5V75c0 2.8 2.3 5 5 5h40c2.8 0 5-2.3 5-5V51.5zM55.8 70.9c.3.8-.4 1.6-1.2 1.6h-9.2c-.9 0-1.5-.8-1.2-1.6l2.2-7.6c-1.9-1.3-3.1-3.6-2.6-6.1.5-2.4 2.5-4.3 4.9-4.7 4-.8 7.5 2.2 7.5 5.9 0 2.1-1.1 3.8-2.7 4.9l2.3 7.6z"/></symbol><symbol viewBox="20 1 100 100" id="mail"><path d="M68.7 56.6c.8.7 1.9.7 2.7 0l28.2-26.2c.6-1 .3-2.7-1.5-2.7l-56 .1c-1.5 0-2.8 1.4-1.5 2.6l28.1 26.2zm31.2-16c0-1.3-1.5-2-2.5-1.2l-22 20.5C73.9 61.3 72 62 70.1 62c-2 0-3.9-.7-5.4-2L42.5 39.5c-1-.9-2.5-.2-2.5 1V69c0 2.8 2.2 5.2 5 5.2h50c2.8 0 5-2.4 5-5.2 0-7.4 0-22.7-.1-28.4z"/></symbol><symbol viewBox="0 0 100 100" id="map-marker"><path d="M50 20c-13.1 0-23.7 10.6-23.7 23.8 0 16.5 17 31.6 22.2 35.6.9.7 2.1.7 3 0 5.2-4 22.2-19.1 22.2-35.6C73.7 30.6 63.1 20 50 20zm0 33.7c-5.5 0-10-4.5-10-10s4.5-10 10-10 10 4.5 10 10-4.5 10-10 10z"/></symbol><symbol viewBox="0 0 100 100" id="measure-1"><path d="M39.7 41.4c-3.6 0-6.6 2.9-6.6 6.6 0 3.6 2.9 6.6 6.6 6.6 3.6 0 6.6-2.9 6.6-6.6 0-3.6-3-6.6-6.6-6.6zM77.2 62H59v-7h2.3c1 0 1.7-1.3 1.7-2.3V47c0-1-.7-2-1.7-2h-2.2c-1.5-9-9.4-16.6-19.1-16.8-11.1-.2-20.2 9.1-20 20.2.2 10.8 9.3 19.6 20.1 19.6H74v1.5c0 1 1.2 2.5 2.3 2.5h1.9c1 0 1.9-1.4 1.9-2.5v-4.7c-.1-1.5-1.4-2.8-2.9-2.8zm-37.5-1.8c-6.7 0-12.2-5.5-12.2-12.2S33 35.8 39.7 35.8 51.9 41.3 51.9 48s-5.5 12.2-12.2 12.2z"/></symbol><symbol viewBox="0 0 100 100" id="measure-2"><path d="M79.4 33.8L66.2 20.6c-.8-.8-2-.8-2.8 0l-1.9 1.9L69 30c.8.8.8 2 0 2.8-.4.4-.9.6-1.4.6-.5 0-1-.2-1.4-.6l-7.5-7.5-3.1 3.1 4.5 4.5c.8.8.8 2 0 2.8-.4.4-.9.6-1.4.6-.5 0-1-.2-1.4-.6l-4.5-4.5-3.1 3.1 4.5 4.5c.8.8.8 2 0 2.8-.4.4-.9.6-1.4.6-.5 0-1-.2-1.4-.6l-4.5-4.5-3.1 3.1 7.5 7.5c.8.8.8 2 0 2.8-.4.4-.9.6-1.4.6s-1-.2-1.4-.6L41 43l-3.1 3.1 4.5 4.5c.8.8.8 2 0 2.8-.4.4-.9.6-1.4.6s-1-.2-1.4-.6l-4.5-4.5L32 52l4.5 4.5c.8.8.8 2 0 2.8-.4.4-.9.6-1.4.6s-1-.2-1.4-.6L28.9 55l-3.1 3.1 7.5 7.5c.8.8.8 2 0 2.8-.4.4-.9.6-1.4.6-.5 0-1-.2-1.4-.6L22.9 61l-2.4 2.4c-.8.8-.8 2 0 2.8l13.3 13.3c.8.8 2 .8 2.8 0l42.8-42.8c.8-.8.8-2.1 0-2.9z"/></symbol><symbol viewBox="-47 1 100 100" id="photo"><path d="M3 43.5c-5.5 0-10 4.5-10 10s4.5 10 10 10 10-4.5 10-10-4.5-10-10-10zM28 36h-6.5c-1.8 0-3.2-.9-4.3-2.2l-2.9-4.4c-.9-2.1-3-3.4-5.3-3.4H-3.1c-2.2 0-4.4 1.2-5.4 3.4l-2.9 4.4c-.9 1.4-2.5 2.2-4.2 2.2H-22c-2.8 0-5 2.2-5 5v30c0 2.8 2.2 5 5 5h50c2.8 0 5-2.2 5-5V41c0-2.8-2.2-5-5-5zM3 68.5c-8.2 0-15-6.8-15-15s6.7-15 15-15 15 6.8 15 15-6.8 15-15 15z"/></symbol><symbol viewBox="0 0 100 100" id="plus"><path class="st0" d="M56.1 54.5H77c1.7 0 3-1.3 3-3v-3c0-1.7-1.3-3-3-3H56.1c-.9 0-1.6-.7-1.6-1.5V23c0-1.6-1.3-3-3-3h-3c-1.7 0-3 1.4-3 3v21c0 .8-.7 1.5-1.4 1.5H23c-1.7 0-3 1.3-3 3v3c0 1.7 1.3 3 3 3h21.1c.8 0 1.4.7 1.4 1.5v21c0 1.7 1.3 3 3 3h3c1.7 0 3-1.3 3-3V56c0-.8.7-1.5 1.6-1.5z"/></symbol><symbol viewBox="11.5 0 100 100" id="power"><path d="M73.8 27.9c-1.7-.9-3.8.4-3.8 2.3V33c0 .9.6 1.7 1.3 2.2 6.6 3.8 10.9 11.3 10 19.6-1 9.2-8.4 16.6-17.6 17.6-12.1 1.3-22.3-8.1-22.3-19.9 0-7.4 4-13.9 10-17.3.8-.5 1.1-1.3 1.1-2.2v-2.9c0-1.9-1.9-3.1-3.5-2.3-9.7 4.9-16 15.3-15 27 1.2 12.9 11.4 23.5 24.3 24.9 16.6 2 30.7-11 30.7-27.2-.1-10.7-6.3-20.1-15.2-24.6zM65 22.5c0-1.4-1.1-2.5-2.5-2.5H60c-1.4 0-2.5 1.1-2.5 2.5v20c0 1.4 1.1 2.5 2.5 2.5h2.5c1.4 0 2.5-1.1 2.5-2.5v-20z"/></symbol><symbol viewBox="0 0 100 100" id="presentations"><path d="M76.7 26.6H23.3c-1.8 0-3.3 1.5-3.3 3.4v40c0 1.9 1.5 3.4 3.3 3.4h53.4c1.8 0 3.3-1.5 3.3-3.4V29.9c0-1.8-1.5-3.3-3.3-3.3zm-3.4 38.3c0 .9-.7 1.7-1.7 1.7H28.3c-.9 0-1.7-.8-1.7-1.7v-30c0-.9.7-1.7 1.7-1.7h43.3c.9 0 1.7.8 1.7 1.7v30zM43.3 59.9l16.7-10-16.7-10"/></symbol><symbol viewBox="-47 1 100 100" id="preview"><path d="M32.7 50C27.3 39 16 31.4 3 31.4S-21.3 39-26.7 50c-.3.7-.3 1.5 0 2.1C-21.3 63-10 70.6 3 70.6S27.3 63 32.7 52c.4-.7.4-1.3 0-2zM3 63.7C-4 63.7-9.7 58-9.7 51S-4 38.3 3 38.3 15.7 44 15.7 51 10 63.7 3 63.7zm0-20.8c-4.5 0-8.1 3.6-8.1 8.1s3.6 8.1 8.1 8.1 8.1-3.6 8.1-8.1-3.6-8.1-8.1-8.1z"/></symbol><symbol viewBox="0 0 100 100" id="process-schedule"><path d="M69.3 27c-6.6-5.5-14.9-7.9-23.2-6.8-.8.1-1.4.2-1.4 1v4.1c0 1.4.9 1.6 1.9 1.4 7.3-1.1 14.7 1.3 20.1 6.7 7.3 7.2 8.7 20.8 3.2 29.4-7.8 12-24 14.3-34.8 5.6C25.6 60.6 23.7 47 30.4 37l.6-.9 3.6 3c1.1.9 2.3.6 2.3-.8V25.4c0-1.9-1.4-2.2-2.7-1.8L23 26.1c-1.3.3-1.7 2-.7 2.8l3.7 3-.6.9c-9 12.7-6.7 30.5 5.6 40.5 13.4 10.9 33.4 8.3 43.5-6 9-12.6 6.7-30.4-5.2-40.3zM45.1 58.9c.6.6 1.5 1 2.3 1 .8 0 1.7-.3 2.3-1l14.1-14.1c.6-.6.6-1.5 0-2l-2.7-2.7c-.6-.6-1.5-.6-2 0L47.4 51.9l-5-5c-.6-.6-1.5-.6-2 0l-2.7 2.7c-.6.6-.6 1.5 0 2l7.4 7.3z"/></symbol><symbol viewBox="0 0 100 100" id="process-start"><path d="M69.3 27c-6.6-5.5-14.9-7.9-23.2-6.8-.8.1-1.4.2-1.4 1v4.1c0 1.4.9 1.6 1.9 1.4 7.3-1.1 14.7 1.3 20.1 6.7 7.3 7.2 8.7 20.8 3.2 29.4-7.8 12-24 14.3-34.8 5.6C25.6 60.6 23.7 47 30.4 37l.6-.9 3.6 3c1.1.9 2.3.6 2.3-.8V25.4c0-1.9-1.4-2.2-2.7-1.8L23 26.1c-1.3.3-1.7 2-.7 2.8l3.7 3-.6.9c-9 12.7-6.7 30.5 5.6 40.5 13.4 10.9 33.4 8.3 43.5-6 9-12.6 6.7-30.4-5.2-40.3zM46.2 61.2L61 51.6c1.2-.8 1.2-2.2.1-3l-15-9.6c-1.6-1-4.1-.1-4.1 1.5v19.3c0 1.5 2.6 2.4 4.2 1.4z"/></symbol><symbol viewBox="0 0 100 100" id="product-health"><path d="M35.3 48.5l7.7-12c.6-1 2.2-.9 2.6.2L52.9 54l5.4-6.1c.2-.2.5-.3.7-.3h18.7c.4 0 .8-.2.9-.6 2.5-6.1 1.4-13.5-3.4-18.5-3-3.2-7-4.9-11.3-4.9-4.2 0-8.2 1.7-11.3 5l-.2.2-1 1.3c-.8 1-2.4 1-3.2 0L47 28.6c-3-3.2-7-4.9-11.3-4.9-4.3 0-8.3 1.7-11.3 4.9-5 5.3-6 13.2-2.9 19.5.2.3.5.6.9.6h12.9zM61.4 53.5l-8.7 9.8c-.7.8-2.1.6-2.5-.4L43.5 47l-4.6 7c-.2.3-.5.5-.8.5H28c-.4 0-.7.5-.4.8 4.5 4.8 12.9 13.8 18 19.3 2.4 2.5 6.3 2.5 8.7 0l19-20.3c.3-.3.1-.8-.4-.8H61.4z"/></symbol><symbol viewBox="0 0 100 100" id="row"><path d="M77.7 24.6H22.3c-1.3 0-2.3 1-2.3 2.3v4.6c0 1.3 1 2.3 2.3 2.3h55.4c1.3 0 2.3-1 2.3-2.3v-4.6c0-1.3-1-2.3-2.3-2.3zm-55.4 30h45c1.3 0 2.3-1 2.3-2.3v-4.6c0-1.3-1-2.3-2.3-2.3h-45c-1.3 0-2.3 1-2.3 2.3v4.6c0 1.3 1 2.3 2.3 2.3zm55.4 11.6H22.3c-1.3 0-2.3 1-2.3 2.3v4.6c0 1.3 1 2.3 2.3 2.3h55.4c1.3 0 2.3-1 2.3-2.3v-4.6c0-1.3-1-2.3-2.3-2.3z"/></symbol><symbol viewBox="80 0.5 100 100" id="salesforce-cloud"><path d="M147 61c-.8 0-1.7-.1-2.5-.2-1.5 3-4.6 5-8.2 5-1.5 0-2.9-.3-4.1-1-1.6 3.9-5.4 6.7-9.9 6.7-4.6 0-8.6-3-10.1-7.1-.7.1-1.3.2-2 .2-5.6 0-10.2-4.6-10.2-10.2 0-3.8 2-7.1 5.1-8.8-.7-1.5-1.1-3.1-1.1-4.8 0-6.4 5.1-11.5 11.5-11.5 3.8 0 7.1 1.8 9.2 4.6 1.9-2.1 4.7-3.4 7.7-3.4 4 0 7.5 2.3 9.2 5.6 1.6-.7 3.4-1.1 5.2-1.1 7.2 0 13 5.8 13 13s-5.6 13-12.8 13z"/></symbol><symbol viewBox="0 0 100 100" id="save"><path d="M60.7 59H39.3c-1.2 0-2.3.5-2.3 1.7v17.1c0 1.2 1.1 2.1 2.3 2.1h21.4c1.2 0 2.3-1 2.3-2.1V60.7c0-1.2-1.1-1.7-2.3-1.7zM79.1 28.9l-8.3-8.3c-.4-.4-.9-.6-1.5-.6-1.2 0-2.3 1-2.3 2.1V35c0 1.2-.8 2-2 2H35c-1.2 0-2-.8-2-2V22.1c0-1.2-1.1-2.1-2.3-2.1h-4.3c-3.6 0-6.4 2.9-6.4 6.4v47.1c0 3.6 2.9 6.4 6.4 6.4h2.1c1.2 0 2.4-1 2.4-2.1V58.6c0-3.6 2.6-6.6 6.1-6.6h25.7c3.6 0 6.1 3 6.1 6.6v19.3c0 1.2 1.2 2.1 2.4 2.1h2.1c3.6 0 6.4-2.9 6.4-6.4V31.1c.3-.8 0-1.6-.6-2.2zM61 22.1c0-1.2-1-2.1-2.1-2.1h-4.7C53 20 52 21 52 22.1v6.7c0 1.2 1 2.1 2.1 2.1h4.7c1.2 0 2.1-1 2.1-2.1v-6.7z"/></symbol><symbol viewBox="20 0 100 100" id="search"><path d="M99.2 73.9L82.9 57.7c2.9-3.9 4.6-8.7 4.6-13.9C87.5 30.6 76.8 20 63.8 20S40 30.6 40 43.8s10.7 23.8 23.8 23.8c5.2 0 10-1.7 13.9-4.5L94 79.4c1 1 2.6 1 3.6 0l1.8-1.8c.8-1.1.8-2.7-.2-3.7zM47.5 43.8c0-9 7.3-16.2 16.2-16.2S80 34.8 80 43.8 72.7 60 63.8 60s-16.3-7.3-16.3-16.2z"/></symbol><symbol viewBox="0 0 100 100" id="settings"><path d="M50 43c-3.9 0-7 3.1-7 7s3.1 7 7 7 7-3.1 7-7-3.1-7-7-7zM76.3 57.9L71.6 54c.3-1.4.4-2.8.4-4.3s-.1-2.9-.4-4.3l4.7-3.9c1.6-1.3 2-3.5.9-5.3l-2-3.5c-.7-1.3-2.1-2-3.6-2-.5 0-1 .1-1.4.3l-5.7 2.2c-2.2-1.9-4.7-3.3-7.4-4.2l-1-5.9C55.7 21.2 54 20 52 20h-4c-2 0-3.7 1.2-4.1 3.2l-1 5.7c-2.7.9-5.2 2.4-7.4 4.3L29.8 31c-.5-.2-.9-.3-1.4-.3-1.5 0-2.8.8-3.6 2.1l-2 3.5c-1 1.8-.6 4 1 5.2l4.7 3.9c-.3 1.4-.4 2.8-.4 4.3s.1 2.9.4 4.3l-4.7 3.9c-1.6 1.3-2 3.5-.9 5.3l2 3.5c.7 1.3 2.1 2.1 3.6 2.1.5 0 1-.1 1.4-.3l5.7-2.1c2.2 1.9 4.7 3.4 7.4 4.3l1 6c.3 2 2.1 3.4 4.1 3.4h4c2 0 3.7-1.4 4.1-3.4l1-6c2.9-1 5.5-2.6 7.7-4.6l5.4 2.1c.5.2 1 .3 1.5.3 1.5 0 2.8-.8 3.6-2l1.9-3.2c.9-1.9.6-4.1-1-5.4zM50 63c-7.2 0-13-5.8-13-13s5.8-13 13-13 13 5.8 13 13-5.8 13-13 13z"/></symbol><symbol viewBox="20 0 100 100" id="share"><path d="M97.5 55H95c-1.4 0-2.5 1.1-2.5 2.5v13.7c0 .7-.5 1.2-1.2 1.2H48.7c-.7 0-1.2-.5-1.2-1.2V42.5h6.2c1.4 0 2.2-1.1 2.2-2.5v-2.5c0-1.4-.8-2.5-2.2-2.5H45c-2.7 0-5 2.2-5 5v35c0 2.7 2.2 5 5 5h50c2.7 0 5-2.2 5-5V57.5c0-1.4-1.1-2.5-2.5-2.5zM80 35c-12.5.6-23.5 10.8-24.8 23.6-.1 1.4 1 2.8 2.5 2.8h2.5c1.3 0 2.3-1.1 2.5-2.3 1.1-9 9-16.6 18.6-16.6h5.1l-9.1 9.1c-.7.7-.7 1.9 0 2.6l2.6 2.6c.7.7 1.9.7 2.6 0L99.3 40c.7-.7.7-1.9 0-2.6L82.6 20.6c-.7-.7-1.9-.7-2.6 0l-2.6 2.6c-.7.7-.9 1.9-.2 2.6L86 35h-6z"/></symbol><symbol viewBox="0 0 100 100" id="shopping-cart"><circle cx="43" cy="73.1" r="5.1"/><circle cx="69.3" cy="73.1" r="5.1"/><path d="M77.9 28H30.8c-1.3-4-4.7-6-8.6-6h-1c-.8 0-1.2.2-1.2 1v3c0 .8.4 2 1.2 2h1c1.3 0 2.4.6 2.9 1.8L34.4 56c1.3 3.6 4.7 6 8.6 6h26.8c.8 0 1.2-.7 1.2-1.5v-3c0-.8-.4-1.4-1.2-1.4H43c-1.3 0-2.4-.8-2.9-2l-1.4-4h31.9c2.8 0 5.2-2 5.9-4.7l3.4-15c.3-1.4-.7-2.4-2-2.4z"/></symbol><symbol viewBox="-47 1 100 100" id="sort"><path d="M4.9 38.5c.7-.7.7-1.9 0-2.6L-9.4 21.6c-.7-.7-1.9-.7-2.6 0l-14.3 14.3c-.7.7-.7 1.9 0 2.6l2.6 2.6c.7.7 1.9.7 2.6 0l4.5-4.5c.7-.7 2.1-.2 2.1.9V64c0 1 .9 1.9 1.9 1.9h3.7c1 0 1.9-1 1.9-1.9V37.5c0-1.1 1.4-1.6 2.1-.9l4.5 4.5c.7.7 1.9.7 2.6 0l2.7-2.6zm27.4 25L29.7 61c-.7-.7-1.9-.7-2.6 0l-4.5 4.5c-.7.7-2.1.2-2.1-.9V37.9c0-1-.9-1.9-1.9-1.9h-3.7c-1 0-1.9 1-1.9 1.9v26.4c0 1.1-1.4 1.6-2.1.9l-4.5-4.5c-.7-.7-1.9-.7-2.6 0l-2.6 2.7c-.7.7-.7 1.9 0 2.6l14.3 14.3c.7.7 1.9.7 2.6 0L32.4 66c.7-.7.7-1.9-.1-2.5z"/></symbol><symbol viewBox="21.5 0.5 100 100" id="spinner"><path d="M73.4 37.5h-3.7c-1 0-1.9-.8-1.9-1.9V21.9c0-1 .8-1.9 1.9-1.9h3.7c1 0 1.9.8 1.9 1.9v13.7c-.1 1.1-.9 1.9-1.9 1.9zm10.9 5l9.7-9.7c.7-.7.7-1.9 0-2.6l-2.6-2.6c-.7-.7-1.9-.7-2.6 0L79 37.2c-.7.7-.7 1.9 0 2.6l2.6 2.6c.8.8 2 .8 2.7.1zm1.6 11.3h13.7c1 0 1.9-.8 1.9-1.9v-3.7c0-1-.8-1.9-1.9-1.9H85.9c-1 0-1.9.8-1.9 1.9v3.7c0 1 .8 1.9 1.9 1.9zm-6.9 9l9.7 9.7c.7.7 1.9.7 2.6 0l2.6-2.6c.7-.7.7-1.9 0-2.6l-9.7-9.7c-.7-.7-1.9-.7-2.6 0L79 60.2c-.7.7-.7 1.9 0 2.6zm-11.3 1.6v13.7c0 1 .8 1.9 1.9 1.9h3.7c1 0 1.9-.8 1.9-1.9V64.4c0-1-.8-1.9-1.9-1.9h-3.7c-1 0-1.9.9-1.9 1.9zm-9-6.9L49 67.2c-.7.7-.7 1.9 0 2.6l2.6 2.6c.7.7 1.9.7 2.6 0l9.7-9.7c.7-.7.7-1.9 0-2.6l-2.6-2.6c-.7-.7-1.9-.7-2.6 0zm-1.6-11.2H43.4c-1 0-1.9.8-1.9 1.9v3.7c0 1 .8 1.9 1.9 1.9h13.7c1 0 1.9-.8 1.9-1.9v-3.7c0-1.1-.9-1.9-1.9-1.9zm6.9-9.1l-9.7-9.7c-.7-.7-1.9-.7-2.6 0l-2.6 2.6c-.7.7-.7 1.9 0 2.6l9.7 9.7c.7.7 1.9.7 2.6 0l2.6-2.6c.7-.7.7-1.9 0-2.6z"/></symbol><symbol viewBox="-47 1 100 100" id="success"><path d="M3 21c-16.6 0-30 13.4-30 30s13.4 30 30 30 30-13.4 30-30S19.6 21 3 21zm16.8 22.5L.6 62.9c-.8.8-2 .8-2.8 0l-10.5-10.6c-.8-.8-.8-2 0-2.8l2.8-2.8c.8-.8 2-.8 2.8 0l5.5 5.6c.5.5 1.4.5 1.9 0l14-14.5c.7-.8 2-.8 2.8 0l2.8 2.8c.7.8.7 2-.1 2.9z"/></symbol><symbol viewBox="0 0 100 100" id="team"><path d="M55.8 44H44.2C41 44 38 46.8 38 50v8.7c0 1.1.5 2 1.2 2.7.7.7 1.8 1.1 2.8 1.1v8.7c0 3.2 2.9 5.7 6.1 5.7h3.8c3.2 0 6.1-2.5 6.1-5.7v-8.7c1 0 2.1-.4 2.8-1.1.7-.7 1.2-1.7 1.2-2.7V50c0-3.2-3-6-6.2-6z"/><circle cx="50" cy="33.6" r="6.8"/><path d="M36.1 66.2c-.2-.2-.2-.4-.4-.6-1.9-1.9-2.7-4.3-2.7-6.9V50c0-3.1 1-6 3-8.1.6-.6 0-1.8-.8-1.8-1.7 0-3.6-.2-3.6-.2h-5.8c-3.2 0-5.8 3-5.8 6.2v8.7c0 1.1.5 2 1.2 2.7.7.7 1.8 1.1 2.8 1.1v8.7c0 3.2 2.5 5.5 5.7 5.5h3.8c.8 0 1.6 0 2.3-.4.3-.2.6-.4.6-.8v-4.9c.1-.1-.1-.3-.3-.5z"/><circle cx="31.6" cy="29.7" r="6.8"/><path d="M74.2 40h-5.8s-1.8.2-3.5.2c-.8 0-1.5 1.1-.9 1.7 2 2.1 3 5 3 8.1v8.7c0 2.6-.8 5-2.7 6.9-.2.2-.3.4-.5.6-.2.2-.3.5-.3.7v4.9c0 .4.2.6.6.8.7.3 1.5.4 2.3.4h3.8c3.2 0 5.7-2.3 5.7-5.5v-8.7c1 0 2.1-.4 2.8-1.1.7-.7 1.2-1.7 1.2-2.7v-8.7C80 43 77.4 40 74.2 40z"/><circle cx="68.4" cy="29.7" r="6.8"/></symbol><symbol viewBox="4 0 100 100" id="trash"><path d="M77.8 30H62.5v-5c0-2.8-2-5-4.8-5h-7.5c-2.8 0-5.2 2.2-5.2 5v5H30.2c-1.4 0-2.2 1.1-2.2 2.5V35c0 1.4.9 2.5 2.2 2.5h47.5c1.4 0 2.2-1.1 2.2-2.5v-2.5c.1-1.4-.7-2.5-2.1-2.5zM50 26.2c0-.7.8-1.2 1.5-1.2h5c.7 0 1 .5 1 1.2V30H50v-3.8zm24 16.3H34c-.7 0-1 .5-1 1.2V75c0 2.8 2 5 4.8 5h32.5c2.8 0 4.8-2.2 4.8-5V43.8c-.1-.8-.4-1.3-1.1-1.3zM50 70.2c0 .7-.5 1.2-1.2 1.2h-2.5c-.7 0-1.2-.6-1.2-1.2V52.8c0-.7.5-1.2 1.2-1.2h2.5c.7 0 1.2.5 1.2 1.2v17.4zm12.5 0c0 .7-.5 1.2-1.2 1.2h-2.5c-.7 0-1.2-.6-1.2-1.2V52.8c0-.7.5-1.2 1.2-1.2h2.5c.7 0 1.2.5 1.2 1.2v17.4z"/></symbol><symbol viewBox="0 0 100 100" id="tutorial"><path d="M58.3 51.7l-13.7-9c-1.5-1-3.6-.1-3.6 1.4V62c0 1.5 2.2 2.4 3.6 1.4l13.7-9c1.1-.7 1.1-2 0-2.7zM72 20H28c-3.3 0-6 2.7-6 6v48c0 3.3 2.7 6 6 6h44c3.3 0 6-2.7 6-6V26c0-3.3-2.7-6-6-6zm-25 4c1.7 0 3 1.3 3 3s-1.3 3-3 3-3-1.3-3-3 1.3-3 3-3zm-8 0c1.7 0 3 1.3 3 3s-1.3 3-3 3-3-1.3-3-3 1.3-3 3-3zm-8 0c1.7 0 3 1.3 3 3s-1.3 3-3 3-3-1.3-3-3 1.3-3 3-3zm-3 50V34h44v40H28z"/></symbol><symbol viewBox="0 0 100 100" id="unlock"><path d="M70 46H37v-7c0-7.6 5.7-13 13-13 6.7 0 12 5 12.9 11.3.1 1 1 1.7 2 1.7h1.9c1.2 0 2.1-1.1 2-2.3-1.2-9-9-16.7-18.9-16.7-10.7 0-19 8.1-19 19v7h-1c-3.3 0-6 2.7-6 6v22c0 3.3 2.7 6 6 6h40c3.3 0 6-2.7 6-6V52c.1-3.3-2.6-6-5.9-6zM55 62.8c-.9 1.3-1.3 2.8-.9 4.3l.6 2.8c.2 1-.6 2.1-1.7 2.1h-6c-1.1 0-1.9-1-1.7-2.1L46 67c.3-1.5-.1-3-.9-4.2-.8-1.2-1.2-2.7-.9-4.3.4-2.2 2.3-4.1 4.7-4.5 3.8-.7 7.2 2.1 7.2 5.6-.1 1.2-.5 2.3-1.1 3.2z"/></symbol><symbol viewBox="0 0 100 100" id="update_status"><path d="M54.8 55.8l2 2c.5.5 1.2.5 1.7 0l5.7-5.9c.5-.5.7-1.1.7-1.7V27.6c0-2.1-1.6-3.7-3.7-3.7H23.7c-2.1 0-3.7 1.6-3.7 3.7v27.5c0 2.1 1.6 3.7 3.7 3.7h17.1c.6 0 1.2-.2 1.7-.7l2.1-2.1c1-1 2.2-1.7 3.6-2 2.5-.5 4.9.2 6.6 1.8zM30.1 35.1c0-.7.5-1.2 1.2-1.2h22.5c.7 0 1.2.5 1.2 1.2v2.5c0 .7-.5 1.2-1.2 1.2H31.3c-.7 0-1.2-.5-1.2-1.2v-2.5zm1.2 13.7c-.7 0-1.2-.5-1.2-1.2v-2.5c0-.7.5-1.2 1.2-1.2h17.5c.7 0 1.2.5 1.2 1.2v2.5c0 .7-.5 1.2-1.2 1.2H31.3zm48.1 3.4l-2.7-2.7c-.7-.7-2-.7-2.7 0L58.6 65c-.5.5-1.4.5-1.9 0l-5.5-5.6c-.7-.7-2-.7-2.7 0l-2.7 2.7c-.7.7-.7 2 0 2.7l10.5 10.8c.7.7 2 .7 2.7 0l20.4-20.5c.9-.9.9-2.1 0-2.9z"/></symbol><symbol viewBox="0 0 100 100" id="upload"><path d="M77.8 58h-4.9c-.8 0-.9.4-.9 1.2V69c0 .8-1.2 2-2 2H30c-.8 0-2-1.2-2-2v-9.8c0-.8-.1-1.2-.9-1.2h-4.9c-.8 0-2.2.4-2.2 1.2v13.2c0 3.2 3.4 6.6 6.6 6.6h46.8c3.2 0 6.6-3.4 6.6-6.6V59.2c0-.8-1.4-1.2-2.2-1.2zm-42-16.9c.6.6 1.4.6 2 0l8.2-8.2v23.4c0 .8.8 1.7 1.6 1.7h4.9c.8 0 1.6-.9 1.6-1.7V32.9l8.2 8.2c.6.6 1.5.6 2 0l3.4-3.4c.6-.6.6-1.5 0-2.1L51.4 19.3c-.8-.8-2-.8-2.8 0L32.4 35.6c-.6.6-.6 1.5 0 2.1l3.4 3.4z"/></symbol><symbol viewBox="0 0 100 100" id="upload-cloud"><path d="M67.6 43.2c-.8-9-8.3-16.1-17.6-16.1-8.7 0-15.8 6.2-17.3 14.4C25.4 43 20 49.4 20 57.1c0 8.5 6.6 15.4 15 15.8h30c8.3 0 15-6.7 15-15 0-7.4-5.4-13.5-12.4-14.7zm-5.8 8.3l-2 2c-.5.5-1.3.5-1.7 0l-4.8-4.8c-.2-.2-.6-.1-.6.2v14.8c0 .7-.6 1.2-1.2 1.2h-2.8c-.7 0-1.2-.6-1.2-1.2V49c0-.3-.4-.5-.6-.2l-5 5c-.5.5-1.3.5-1.7 0l-2-2c-.5-.5-.5-1.3 0-1.7L49 39.3c.7-.7 1.7-.7 2.4 0L62 49.9c.3.4.3 1.2-.2 1.6z"/></symbol><symbol viewBox="0 0 100 100" id="upload-csv"><path d="M73 42H59c-3.3 0-6-2.7-6-6V22c0-1.1-.9-2-2-2H31c-3.3 0-6 2.7-6 6v48c0 3.3 2.7 6 6 6h38c3.3 0 6-2.7 6-6V44c0-1.1-.9-2-2-2zM57.5 58H53v10c0 .6-.4 1-1 1h-4c-.6 0-1-.4-1-1V58h-4.4c-1.3 0-2-1.4-1.2-2.4l7.5-9.1c.6-.7 1.7-.7 2.3 0l7.5 9.1c.8 1 .1 2.4-1.2 2.4zM74.6 33.6L61.4 20.4c-.3-.3-.6-.4-1-.4-.8 0-1.4.6-1.4 1.4V32c0 2.2 1.8 4 4 4h10.6c.8 0 1.4-.6 1.4-1.4 0-.4-.1-.7-.4-1z"/></symbol><symbol viewBox="-47 1 100 100" id="user"><path d="M33 72.2V75c0 3.2-2.8 6-6 6h-48c-3.2 0-6-2.8-6-6v-2.8c0-7.2 8.5-11.8 16.5-15.2l.8-.4c.6-.2 1.2-.2 1.9.1C-4.6 58.9-1 60 2.9 60s7.6-1.2 10.8-3.2c.6-.4 1.2-.4 1.9-.1l.7.4C24.5 60.5 33 64.9 33 72.2zM3 21c8.2 0 14.9 7.4 14.9 16.5S11.3 54 3 54s-14.9-7.4-14.9-16.5S-5.2 21 3 21z"/></symbol><symbol viewBox="21.5 0 100 100" id="utility"><path d="M66.5 63.7c0-3.3 1.1-7.3 2.8-10.2 2.1-3.8 4.5-5.3 6.3-8 3.1-4.6 3.7-11.2 1.7-16.2-2-5.1-6.8-8.1-12.3-8-5.5.1-9.9 3.5-11.7 8.6-2 5.6-1.1 12.4 3.3 16.5 1.9 1.8 3.6 4.4 2.7 7.1-.8 2.5-3.8 3.6-6 4.6-4.9 2.1-10.7 5.1-11.7 10.9-.8 4.8 2.3 9.6 7.4 9.6h21.3c1 0 1.6-1.2.9-2-3-3.5-4.7-8.1-4.7-12.9zm21.9-14.9c-9.8-1.2-18 7-16.8 16.8.8 6.7 6.2 12.1 12.9 12.9 9.8 1.2 18-7 16.8-16.8-.8-6.6-6.2-12-12.9-12.9zM94 65c0 .7-.5 1.2-1.2 1.2H89V70c0 .7-.5 1.2-1.2 1.2h-2.5c-.7 0-1.2-.5-1.2-1.2v-3.7h-3.7c-.7 0-1.2-.5-1.2-1.2v-2.5c0-.7.5-1.2 1.2-1.2H84v-3.7c0-.7.5-1.2 1.2-1.2h2.5c.7 0 1.2.5 1.2 1.2v3.7h3.7c.7 0 1.2.5 1.2 1.2V65h.2z"/></symbol><symbol viewBox="0 0 100 100" id="view-grid"><path d="M33.3 20H22.2C21 20 20 21 20 22.2v11.1c0 1.2 1 2.2 2.2 2.2h11.1c1.2 0 2.2-1 2.2-2.2V22.2c.1-1.2-.9-2.2-2.2-2.2zm22.3 0H44.4c-1.2 0-2.2 1-2.2 2.2v11.1c0 1.2 1 2.2 2.2 2.2h11.1c1.2 0 2.2-1 2.2-2.2V22.2c.1-1.2-.9-2.2-2.1-2.2zm22.2 0H66.7c-1.2 0-2.2 1-2.2 2.2v11.1c0 1.2 1 2.2 2.2 2.2h11.1c1.2 0 2.2-1 2.2-2.2V22.2c0-1.2-1-2.2-2.2-2.2zM33.3 42.2H22.2c-1.2 0-2.2 1-2.2 2.2v11.1c0 1.2 1 2.2 2.2 2.2h11.1c1.2 0 2.2-1 2.2-2.2V44.4c.1-1.2-.9-2.2-2.2-2.2zm22.3 0H44.4c-1.2 0-2.2 1-2.2 2.2v11.1c0 1.2 1 2.2 2.2 2.2h11.1c1.2 0 2.2-1 2.2-2.2V44.4c.1-1.2-.9-2.2-2.1-2.2zm22.2 0H66.7c-1.2 0-2.2 1-2.2 2.2v11.1c0 1.2 1 2.2 2.2 2.2h11.1c1.2 0 2.2-1 2.2-2.2V44.4c0-1.2-1-2.2-2.2-2.2zM33.3 64.4H22.2c-1.2 0-2.2 1-2.2 2.2v11.1c0 1.2 1 2.2 2.2 2.2h11.1c1.2 0 2.2-1 2.2-2.2v-11c.1-1.3-.9-2.3-2.2-2.3zm22.3 0H44.4c-1.2 0-2.2 1-2.2 2.2v11.1c0 1.2 1 2.2 2.2 2.2h11.1c1.2 0 2.2-1 2.2-2.2v-11c.1-1.3-.9-2.3-2.1-2.3zm22.2 0H66.7c-1.2 0-2.2 1-2.2 2.2v11.1c0 1.2 1 2.2 2.2 2.2h11.1c1.2 0 2.2-1 2.2-2.2v-11c0-1.3-1-2.3-2.2-2.3z"/></symbol><symbol viewBox="0 0 100 100" id="view-list"><path d="M26 28h-4c-1.1 0-2 .9-2 2v4c0 1.1.9 2 2 2h4c1.1 0 2-.9 2-2v-4c0-1.1-.9-2-2-2zm52 0H36c-1.1 0-2 .9-2 2v4c0 1.1.9 2 2 2h42c1.1 0 2-.9 2-2v-4c0-1.1-.9-2-2-2zM26 46h-4c-1.1 0-2 .9-2 2v4c0 1.1.9 2 2 2h4c1.1 0 2-.9 2-2v-4c0-1.1-.9-2-2-2zm10 8h34c1.1 0 2-.9 2-2v-4c0-1.1-.9-2-2-2H36c-1.1 0-2 .9-2 2v4c0 1.1.9 2 2 2zM26 64h-4c-1.1 0-2 .9-2 2v4c0 1.1.9 2 2 2h4c1.1 0 2-.9 2-2v-4c0-1.1-.9-2-2-2zm52 0H36c-1.1 0-2 .9-2 2v4c0 1.1.9 2 2 2h42c1.1 0 2-.9 2-2v-4c0-1.1-.9-2-2-2z"/></symbol><symbol viewBox="0 0 100 100" id="view-tile"><path d="M20 57.1c0-1.8 1.5-3.3 3.3-3.3h19.6c1.8 0 3.3 1.5 3.3 3.3v19.6c0 1.8-1.5 3.3-3.3 3.3H23.3c-1.8 0-3.3-1.5-3.3-3.3V57.1zm33.8 0c0-1.8 1.5-3.3 3.3-3.3h19.6c1.8 0 3.3 1.5 3.3 3.3v19.6c0 1.8-1.5 3.3-3.3 3.3H57.1c-1.8 0-3.3-1.5-3.3-3.3V57.1zM20 23.3c0-1.8 1.5-3.3 3.3-3.3h19.6c1.8 0 3.3 1.5 3.3 3.3v19.6c0 1.8-1.5 3.3-3.3 3.3H23.3c-1.8 0-3.3-1.5-3.3-3.3V23.3zm33.8 0c0-1.8 1.5-3.3 3.3-3.3h19.6c1.8 0 3.3 1.5 3.3 3.3v19.6c0 1.8-1.5 3.3-3.3 3.3H57.1c-1.8 0-3.3-1.5-3.3-3.3V23.3z"/></symbol><symbol viewBox="0 0 100 100" id="volunteering"><path d="M52.5 48.9c3.1-3.3 11.4-12.2 11.9-12.7 3.5-3.7 3.5-9.7 0-13.4-1.7-1.8-4-2.8-6.4-2.8-2.4 0-4.6 1-6.4 2.8l-.1.1-.6.7c-.5.6-1.3.6-1.8 0l-.7-.9C46.7 21 44.5 20 42 20c-2.4 0-4.7 1-6.4 2.8-3.5 3.7-3.5 9.7 0 13.4 0 0 7.8 8.3 11.9 12.7 1.4 1.5 3.6 1.5 5 0zm26.3 13.6c-.5-1.1-1.8-1.6-2.8-1l-10.2 8c-1.7 1.2-3.3 1.6-5 1.6H51c-1.6 0-3-1.3-3-3V68c0-1.6 1.3-3 3-3h7c2.2 0 4-1.8 4-4s-1.8-4-4-4H45.5c-1.3 0-2.6.2-3.5 1.1L38.4 62c-.3.3-.4.8-.4 1.2V78c0 1.1.9 2 2 2h24.8c1.3 0 2.6-.8 3.5-1.6l10-7.6c2.7-2.1 1.7-5.5.5-8.3zm-46.8 0c0-1.4-1.1-2.5-2.5-2.5h-7c-1.4 0-2.5 1.1-2.5 2.5v15c0 1.4 1.1 2.5 2.5 2.5h7c1.4 0 2.5-1.1 2.5-2.5v-15z"/></symbol><symbol viewBox="-47 1 100 100" id="warning"><path d="M32.3 70.1L5.9 27.3C4.5 25 1.5 25 .1 27.3L-26.3 70c-1.6 2.7 0 6.4 2.9 6.4h52.9c2.8 0 4.5-3.7 2.8-6.3zM3 67.2c-2 0-3.5-1.5-3.5-3.5S1 60.2 3 60.2s3.5 1.5 3.5 3.5-1.6 3.5-3.5 3.5zm3.4-10.4c0 .7-.5 1.2-1.2 1.2H.7c-.7 0-1.2-.5-1.2-1.2v-15c0-.7.5-1.2 1.2-1.2h4.6c.7 0 1.2.5 1.2 1.2v15z"/></symbol><symbol viewBox="0 0 100 100" id="widget-image"><path d="M80 33c0-3.3-2.7-6-6-6H26c-3.3 0-6 2.7-6 6v35c0 3.3 2.7 6 6 6h48c3.3 0 6-2.7 6-6V33zm-42 1.5c2.8 0 5 2.2 5 5s-2.2 5-5 5-5-2.2-5-5 2.2-5 5-5zM69.9 65H30.2c-.9 0-1.3-1.3-.8-1.9l10.8-12.6c.4-.5 1.1-.5 1.5-.1l5.4 6.2c.4.5 1.2.4 1.6-.1l7.5-10c.4-.5 1.2-.5 1.6 0l12.9 16.6c.5.7.1 1.9-.8 1.9z"/></symbol><symbol viewBox="0 0 100 100" id="widget-number"><path d="M29 43.6l-5.6 4.7-3.3-3.8 8.5-7.4H34v26h-5V43.6zm11 13.8l10-9.2c.5-.5.9-1 1.5-1.6.5-.6.7-1.3.7-2.1 0-.9-.3-1.6-1-2.1-.6-.5-1.4-.8-2.3-.8-1 0-1.9.3-2.4 1-.6.6-.9 1.4-1 2.4l-5.5-.4c.1-1.4.4-2.5.9-3.6.5-1 1.2-1.8 2-2.5s1.8-1.2 2.9-1.5c1.1-.3 2.3-.5 3.6-.5 1.2 0 2.3.2 3.3.5s1.9.8 2.7 1.5c.8.7 1.4 1.5 1.8 2.5.4 1 .7 2.1.7 3.5 0 .8-.1 1.6-.3 2.3-.2.7-.4 1.3-.7 1.9-.3.6-.7 1.1-1.1 1.5-.4.5-.9.7-1.4 1.2l-8 6.7H58v5H40v-5.7zM69 47h.7c.5 0 1 .1 1.5 0s.9-.2 1.4-.4c.4-.2.7-.5 1-.9.2-.4.4-.9.4-1.5 0-.8-.3-1.4-.9-2-.6-.5-1.4-.8-2.3-.8-.9 0-1.6.2-2.2.7-.6.5-.9 1.1-1.1 1.8l-6.1-1.3c.3-1.1.7-2.1 1.3-2.9.6-.8 1.3-1.5 2.1-2s1.7-.9 2.7-1.1c1-.2 2.1-.4 3.2-.4 1.2 0 2.3.1 3.4.4 1.1.3 2 .7 2.8 1.3.8.6 1.5 1.4 2 2.3.5.9.7 2 .7 3.3 0 1.5-.4 2.7-1.2 3.8-.8 1-1.4 1.7-3.4 2v.1c1 .1 1.5.3 2.1.7.6.4 1.1.8 1.6 1.4.4.5.7 1.2 1 1.9.2.7.3 1.4.3 2.2 0 1.3-.3 2.5-.8 3.5s-1.2 1.8-2 2.5c-.9.7-1.9 1.1-3 1.5-1.2.3-2.4.5-3.7.5-2.4 0-4.4-.5-6.1-1.6-1.7-1.1-2.8-2.8-3.4-5.2l5.9-1.4c.2.9.6 1.7 1.2 2.2.6.5 1.5.8 2.7.8 1.2 0 2.1-.3 2.7-.9.6-.6.9-1.4.9-2.4 0-.7-.2-1.3-.5-1.7-.3-.4-.7-.7-1.2-.9-.5-.2-1.1-.3-1.7-.4-.6 0-1.2-.1-1.9-.1H69v-5z"/></symbol><symbol viewBox="0 0 100 100" id="widget-text"><path d="M32 62h.3c-.6 1-1.5 1.4-2.5 1.9-1 .4-2.1.5-3.3.5-.9 0-1.7-.2-2.5-.4s-1.5-.6-2.1-1.1c-.6-.5-1.1-1.1-1.4-1.8-.4-.7-.5-1.5-.5-2.5 0-1.1.2-1.9.6-2.7.4-.7.9-1.3 1.6-1.8.7-.5 1.4-.8 2.3-1.1.9-.3 1.7-.5 2.7-.6.9-.1 1.8-.2 2.7-.2h2.5c0-1-.4-1.8-1.1-2.4-.7-.6-1.6-.9-2.5-.9-.9 0-1.8.2-2.5.6-.8.4-1.4.9-2 1.6l-3-3.1c1.1-1 2.3-1.7 3.7-2.2 1.4-.5 2.9-.7 4.4-.7 1.7 0 3 .2 4.1.6 1.1.4 1.9 1 2.6 1.8.6.8.8 1.8 1.1 3 .3 1.2.1 2.5.1 4V64h-5v-2zm-1-6c-.4 0-1-.1-1.6 0-.6 0-1.3.1-1.8.3-.6.1-1.1.3-1.6.7-.4.4-.6.8-.6 1.5s.3 1.2.9 1.5c.6.3 1.2.5 1.8.5.6 0 1.1-.1 1.6-.2.5-.2 1-.4 1.4-.6.4-.3.5-.6.8-1.1.2-.4.2-.9.2-1.5v-1H31zm9-20h5v12h1.3c.7-1 1.5-1.8 2.5-2.1 1-.4 2.1-.7 3.3-.7 1.3 0 2.5.2 3.5.7 1 .5 1.9 1.2 2.6 2.1.7.9 1.3 1.9 1.7 3.1.4 1.2.6 2.4.6 3.7 0 1.4-.2 2.6-.6 3.8-.4 1.2-1 2.1-1.8 3-.8.8-1.7 1.5-2.8 2-1.1.5-2.3.7-3.7.7-.7 0-1.3-.1-1.8-.3-.6-.2-1.1-.4-1.6-.7-.5-.3-.9-.3-1.3-.6s-.7-.7-.9-.7h-1v2h-5V36zm5.8 18.7c0 1.4.4 2.5 1.2 3.3.8.9 1.9 1.3 3.3 1.3s2.5-.4 3.3-1.3c.8-.9 1.2-2 1.2-3.3 0-1.4-.4-2.5-1.2-3.3-.8-.9-1.9-1.3-3.3-1.3s-2.5.4-3.3 1.3c-.8.8-1.2 1.9-1.2 3.3zm30.5-3.3c-.3-.4-.7-.7-1.2-1-.5-.3-1-.4-1.6-.4-1.4 0-2.5.4-3.3 1.3-.8.9-1.2 2-1.2 3.3 0 1.4.4 2.5 1.2 3.3.8.9 1.9 1.3 3.3 1.3.6 0 1.2-.1 1.6-.4.5-.3.8-.6 1.2-1l3.7 3.9c-.9.9-1.9 1.5-3.1 1.9-1.2.4-2.3.5-3.4.5-1.4 0-2.7-.2-4-.7-1.2-.5-2.3-1.1-3.2-1.9-.9-.8-1.6-1.8-2.2-3-.5-1.2-.8-2.5-.8-3.9 0-1.5.3-2.8.8-3.9.5-1.2 1.2-2.2 2.2-3 .9-.8 2-1.5 3.2-1.9 1.2-.5 2.6-.7 4-.7 1.1 0 2.2.2 3.4.5 1.2.4 2.2 1 3.1 1.9l-3.7 3.9z"/></symbol><symbol viewBox="0 0 100 100" id="widget-toggle"><path d="M65.1 20H34.9c-7 0-12.7 5.7-12.7 12.7v.3c0 7 5.7 12.7 12.7 12.7h30.3c7 0 12.7-5.7 12.7-12.7v-.3c0-7-5.7-12.7-12.8-12.7zm-29 21.4c-4.7 0-8.6-3.8-8.6-8.6s3.8-8.6 8.6-8.6 8.6 3.8 8.6 8.6-3.9 8.6-8.6 8.6zm29 12.9H34.9c-7 0-12.7 5.7-12.7 12.7v.3c0 7 5.7 12.7 12.7 12.7h30.3c7 0 12.7-5.7 12.7-12.7V67c0-7-5.7-12.7-12.8-12.7zm-1.2 21.4c-4.7 0-8.6-3.8-8.6-8.6s3.8-8.6 8.6-8.6 8.6 3.8 8.6 8.6-3.8 8.6-8.6 8.6z"/></symbol><symbol viewBox="0 0 100 100" id="workflow-1"><path d="M57 28.9c0-1-.8-1.9-1.9-1.9H43.9c-1 0-1.9.8-1.9 1.9v7.2c0 1 .8 1.9 1.9 1.9h11.2c1 0 1.9-.8 1.9-1.9v-7.2zm0 16c0-1-.8-1.9-1.9-1.9H43.9c-1 0-1.9.8-1.9 1.9v7.2c0 1 .8 1.9 1.9 1.9h11.2c1 0 1.9-.8 1.9-1.9v-7.2zm0 17c0-1-.8-1.9-1.9-1.9H43.9c-1 0-1.9.8-1.9 1.9v7.2c0 1 .8 1.9 1.9 1.9h11.2c1 0 1.9-.8 1.9-1.9v-7.2zM30.7 41.6c-.6-.5-1.7-.1-1.7.7V46h-.6c-1.6 0-2.4-1.2-2.4-2.8v-5.6c0-1.6.9-2.6 2.4-2.6h7c.8 0 1.5-.8 1.5-1.6v-2.8c0-.8-.8-1.6-1.5-1.6h-7c-4.7 0-8.4 3.9-8.4 8.6v5.6c0 4.7 3.8 8.8 8.4 8.8h.6v3.4c0 .8 1.1 1.2 1.7.7l7.7-6.5c.4-.4.4-1.1 0-1.5l-7.7-6.5zM71.6 46h-7c-.8 0-1.5.7-1.5 1.4v2.8c0 .8.8 1.7 1.5 1.7h7c1.6 0 2.4.9 2.4 2.5V60c0 1.6-.9 2.9-2.4 2.9H71v-3.8c0-.8-1.1-1.2-1.7-.7L61.7 65c-.4.4-.5 1.1 0 1.5l7.7 6.5c.6.5 1.6.1 1.6-.7V69h.6c4.7 0 8.4-4.2 8.4-8.9v-5.6c0-4.7-3.8-8.5-8.4-8.5z"/></symbol><symbol viewBox="0 0 100 100" id="workflow-2"><path d="M50 36c1.1 0 2.2-.2 3.1-.6l7.1 7.1c1.1-1.7 2.5-3.1 4.2-4.2l-7.1-7.1c.4-1 .6-2 .6-3.1 0-4.4-3.6-8-8-8s-8 3.6-8 8S45.6 36 50 36zm22 6c-4.4 0-8 3.6-8 8 0 1.1.2 2.2.6 3.1l-7.1 7.1c1.7 1.1 3.1 2.5 4.2 4.2l7.1-7.1c1 .4 2 .6 3.1.6 4.4 0 8-3.6 8-8S76.4 42 72 42zM50 64c-1.1 0-2.2.2-3.1.6l-7.1-7.1c-1.1 1.7-2.5 3.1-4.2 4.2l7.1 7.1c-.4 1-.6 2-.6 3.1 0 4.4 3.6 8 8 8s8-3.6 8-8S54.4 64 50 64zM35.4 46.9l7.1-7.1c-1.7-1.1-3.1-2.5-4.2-4.2l-7.1 7.1c-1-.4-2-.6-3.1-.6-4.4 0-8 3.6-8 8s3.6 8 8 8 8-3.6 8-8c-.1-1.2-.3-2.3-.7-3.2z"/></symbol><symbol viewBox="0 0 100 100" id="zoom-in"><path d="M65.5 41H59v-6.5c0-.8-.6-1.5-1.5-1.5h-3c-.8 0-1.5.7-1.5 1.5V41h-6.5c-.8 0-1.5.6-1.5 1.5v3c0 .8.7 1.5 1.5 1.5H53v6.5c0 .8.7 1.5 1.5 1.5h3c.8 0 1.5-.7 1.5-1.5V47h6.5c.8 0 1.5-.7 1.5-1.5v-3c0-.9-.7-1.5-1.5-1.5zM56 20c-13.2 0-24 10.8-24 24s10.8 24 24 24 24-10.8 24-24-10.8-24-24-24zm0 41.9c-9.9 0-18-8.1-18-18s8.1-18 18-18 18 8.1 18 18-8.1 18-18 18zm-24.4-.6L21.5 71.5c-1.9 1.9-1.9 5.1 0 7.1 1 1 2.3 1.5 3.5 1.5 1.3 0 2.6-.5 3.5-1.5l10.2-10.2c-2.7-2-5.1-4.4-7.1-7.1z"/></symbol><symbol viewBox="0 0 100 100" id="zoom-out"><path d="M31.6 61.3L21.5 71.5c-1.9 1.9-1.9 5.1 0 7.1 1 1 2.3 1.5 3.5 1.5 1.3 0 2.6-.5 3.5-1.5l10.2-10.2c-2.7-2-5.1-4.4-7.1-7.1zM56 20c-13.2 0-24 10.8-24 24s10.8 24 24 24 24-10.8 24-24-10.8-24-24-24zm0 41.9c-9.9 0-18-8.1-18-18s8.1-18 18-18 18 8.1 18 18-8.1 18-18 18zM67 42.5c0-.8-.7-1.5-1.5-1.5h-19c-.8 0-1.5.7-1.5 1.5v3c0 .8.7 1.5 1.5 1.5h19c.8 0 1.5-.7 1.5-1.5v-3z"/></symbol></svg>